{"glyphs":{"0":{"ha":986,"x_min":69,"x_max":917,"o":"m 493 -17 q 324 25 401 -17 q 190 139 246 67 q 101 308 133 211 q 69 515 69 404 q 101 727 69 626 q 190 905 133 828 q 324 1027 246 982 q 493 1072 401 1072 q 663 1027 585 1072 q 797 905 740 982 q 885 727 853 828 q 917 515 917 626 q 885 308 917 404 q 797 139 853 211 q 663 25 740 67 q 493 -17 585 -17 m 493 942 q 403 909 444 942 q 333 819 363 876 q 285 684 303 763 q 268 514 268 606 q 285 348 268 422 q 333 222 303 274 q 405 142 364 169 q 493 114 446 114 q 582 142 540 114 q 653 222 624 169 q 701 348 683 274 q 718 514 718 422 q 700 684 718 606 q 651 819 682 763 q 580 909 621 876 q 493 942 539 942 z "},"1":{"ha":486,"x_min":69,"x_max":354,"o":"m 122 0 q 138 28 132 15 q 147 54 143 40 q 151 84 150 68 q 153 122 153 100 l 153 906 q 134 987 153 961 q 69 1017 115 1013 l 69 1049 l 329 1049 l 329 122 q 335 52 329 79 q 354 -1 340 25 l 122 0 z "},"2":{"ha":832,"x_min":69,"x_max":749,"o":"m 714 0 l 71 0 l 299 263 q 376 358 338 308 q 444 460 414 407 q 492 572 474 514 q 510 693 510 631 q 497 783 510 740 q 457 856 483 825 q 392 906 431 888 q 303 924 353 924 q 182 891 229 924 q 92 801 135 858 l 69 831 q 127 928 94 883 q 201 1004 160 972 q 294 1054 243 1036 q 406 1072 344 1072 q 531 1048 474 1072 q 631 981 589 1024 q 696 880 672 938 q 719 756 719 822 q 684 590 719 672 q 597 428 649 507 q 483 280 544 350 q 371 151 422 210 l 582 151 q 674 166 635 151 q 749 221 713 181 l 714 0 z "},"3":{"ha":853,"x_min":69,"x_max":769,"o":"m 578 617 l 578 613 q 719 498 669 572 q 769 319 769 424 q 741 185 769 246 q 661 80 713 124 q 540 12 610 36 q 386 -12 469 -12 q 217 23 294 -12 q 69 125 139 58 l 93 158 q 197 109 149 124 q 299 94 246 94 q 399 112 351 94 q 483 160 447 129 q 540 236 519 192 q 561 335 561 281 q 507 493 561 431 q 329 576 453 556 l 329 615 q 463 686 419 638 q 507 799 507 735 q 494 858 507 829 q 459 907 482 886 q 406 940 436 928 q 340 953 375 953 q 240 935 283 953 q 156 878 196 918 l 131 907 q 265 1028 188 983 q 438 1072 342 1072 q 545 1053 494 1072 q 633 1002 596 1035 q 693 926 671 969 q 715 831 715 882 q 677 707 715 761 q 578 617 639 653 z "},"4":{"ha":982,"x_min":69,"x_max":926,"o":"m 300 490 l 565 490 l 564 926 q 559 1002 564 974 q 543 1054 554 1031 l 767 1054 q 755 1028 760 1040 q 747 1001 750 1015 q 743 967 744 986 q 742 922 742 949 l 740 490 l 783 490 q 852 497 828 490 q 901 518 876 503 l 926 297 q 897 320 911 311 q 866 335 882 329 q 831 342 850 340 q 785 344 811 344 l 739 344 l 739 115 q 745 50 739 75 q 768 0 751 25 l 531 0 q 554 53 547 28 q 561 117 561 79 l 561 344 l 247 344 q 197 344 219 344 q 153 341 174 343 q 113 335 133 339 q 69 326 93 332 q 154 442 124 389 q 199 542 185 496 q 217 627 214 588 q 221 700 221 667 q 194 880 221 794 q 107 1056 167 965 l 328 1056 q 381 935 365 994 q 397 796 397 875 q 373 638 397 717 q 300 490 349 558 z "},"5":{"ha":793,"x_min":56,"x_max":710,"o":"m 172 -26 q 111 -24 139 -26 q 56 -15 83 -22 l 67 22 q 106 22 89 22 q 146 25 122 22 q 295 59 228 31 q 410 133 363 88 q 485 240 458 179 q 511 371 511 300 q 494 456 511 417 q 449 524 478 496 q 380 567 419 551 q 294 583 340 583 q 210 571 254 583 q 133 535 165 558 l 171 1056 l 561 1056 q 640 1063 606 1056 q 699 1083 675 1071 l 674 843 q 644 867 660 857 q 606 883 628 876 q 553 892 583 889 q 481 894 522 894 l 293 894 l 276 693 q 332 709 300 703 q 392 715 364 715 q 526 690 467 715 q 626 621 586 664 q 688 522 667 578 q 710 404 710 465 q 663 215 710 296 q 539 81 615 135 q 366 1 463 28 q 172 -26 269 -26 z "},"6":{"ha":865,"x_min":69,"x_max":796,"o":"m 444 -11 q 265 29 338 -11 q 149 131 193 69 q 88 267 106 193 q 69 410 69 342 q 124 663 69 546 q 267 867 179 779 q 464 1008 354 954 q 685 1072 574 1061 l 690 1038 q 441 879 543 992 q 303 607 339 767 q 380 635 340 626 q 456 643 419 643 q 594 615 532 643 q 702 541 657 588 q 772 433 747 494 q 796 307 796 372 q 772 192 796 249 q 704 90 749 135 q 594 17 660 44 q 444 -11 528 -11 m 442 526 q 375 510 406 526 q 321 467 344 494 q 284 401 297 439 q 271 317 271 363 q 284 233 271 271 q 321 166 297 194 q 375 122 344 138 q 442 106 406 106 q 508 122 476 106 q 563 166 540 138 q 600 233 586 194 q 614 317 614 271 q 600 401 614 363 q 563 467 586 439 q 508 510 540 494 q 442 526 476 526 z "},"7":{"ha":743,"x_min":69,"x_max":729,"o":"m 378 190 q 360 86 353 128 q 408 0 368 44 l 100 0 l 511 894 l 269 894 q 157 880 204 894 q 69 832 110 865 l 85 1081 q 151 1062 113 1068 q 235 1056 189 1056 l 729 1056 l 378 190 z "},"8":{"ha":849,"x_min":69,"x_max":779,"o":"m 428 -15 q 259 13 328 -15 q 149 82 190 40 q 88 172 107 124 q 69 264 69 221 q 118 415 69 339 q 274 563 167 492 q 219 605 246 581 q 171 658 192 629 q 136 721 150 688 q 122 790 122 754 q 142 889 122 839 q 203 980 163 939 q 302 1047 243 1021 q 439 1072 361 1072 q 536 1056 486 1072 q 628 1007 586 1039 q 696 928 669 975 q 722 819 722 881 q 710 749 722 782 q 679 685 699 715 q 635 630 660 656 q 586 583 611 604 q 731 451 682 525 q 779 290 779 376 q 747 158 779 215 q 664 63 715 101 q 550 4 613 24 q 428 -15 488 -15 m 443 954 q 342 915 376 954 q 307 818 307 876 q 347 726 307 765 q 444 650 386 686 q 506 693 482 674 q 545 733 531 713 q 566 775 560 753 q 572 828 572 797 q 563 873 572 850 q 538 914 554 896 q 497 943 521 932 q 443 954 474 954 m 410 489 q 279 380 322 429 q 236 278 236 331 q 288 152 236 200 q 424 104 340 104 q 485 115 454 104 q 541 149 517 126 q 580 204 565 171 q 593 282 594 238 q 542 391 590 340 q 410 489 493 442 z "},"9":{"ha":865,"x_min":69,"x_max":796,"o":"m 181 -11 l 174 24 q 310 86 247 46 q 424 182 374 126 q 509 306 474 238 q 563 454 544 375 q 485 426 525 435 q 410 417 446 417 q 271 444 333 417 q 163 519 208 472 q 94 626 118 565 q 69 753 69 686 q 93 868 69 811 q 161 970 117 925 q 272 1043 206 1015 q 421 1071 338 1071 q 600 1031 528 1071 q 716 928 672 990 q 778 792 760 867 q 796 650 796 718 q 741 397 796 514 q 599 194 686 281 q 401 53 511 107 q 181 -11 290 0 m 424 954 q 356 939 388 954 q 302 896 325 924 q 265 830 279 868 q 251 746 251 792 q 265 661 251 700 q 302 594 279 622 q 356 551 325 567 q 424 535 388 535 q 490 551 458 535 q 544 594 521 567 q 581 661 567 622 q 594 746 594 700 q 581 830 594 792 q 544 896 567 868 q 490 939 521 924 q 424 954 458 954 z "},"\u0000":{"ha":0,"x_min":0,"x_max":0,"o":""},"\r":{"ha":438,"x_min":0,"x_max":0,"o":""},"\t":{"ha":1389,"x_min":0,"x_max":0,"o":""},"\n":{"ha":1389,"x_min":0,"x_max":0,"o":""}," ":{"ha":438,"x_min":0,"x_max":0,"o":""},"!":{"ha":413,"x_min":69,"x_max":343,"o":"m 233 297 l 207 297 l 131 851 q 124 891 128 875 q 113 918 119 907 q 95 938 106 929 q 69 956 85 946 l 343 1086 l 233 297 m 218 -12 q 143 19 174 -12 q 113 96 113 51 q 143 173 113 140 q 218 206 174 206 q 259 197 240 206 q 292 173 278 188 q 315 138 307 158 q 324 96 324 118 q 293 19 324 51 q 218 -12 263 -12 z "},"\"":{"ha":486,"x_min":42,"x_max":444,"o":"m 219 1054 q 199 1006 208 1029 q 185 964 190 982 q 161 883 174 929 q 142 772 149 836 l 122 772 q 103 883 115 836 q 79 963 90 929 q 63 1006 72 982 q 42 1054 53 1029 l 219 1054 m 444 1054 q 424 1006 433 1029 q 410 964 415 982 q 386 883 399 929 q 367 772 374 836 l 347 772 q 328 883 340 836 q 304 963 315 929 q 288 1006 297 982 q 267 1054 278 1029 l 444 1054 z "},"#":{"ha":908,"x_min":28,"x_max":881,"o":"m 861 644 l 696 644 l 657 411 l 818 411 l 799 285 l 639 285 l 585 0 l 444 0 l 497 285 l 331 285 l 281 0 l 140 0 l 192 285 l 28 285 l 49 411 l 213 411 l 253 644 l 90 644 l 113 771 l 276 771 l 326 1056 l 467 1056 l 411 771 l 578 771 l 631 1056 l 771 1056 l 718 771 l 881 771 l 861 644 m 392 644 l 351 411 l 518 411 l 558 644 l 392 644 z "},"$":{"ha":742,"x_min":69,"x_max":672,"o":"m 408 393 l 408 126 q 471 169 447 140 q 494 243 494 197 q 476 321 494 283 q 408 393 457 358 m 336 676 l 336 931 q 274 883 299 915 q 250 810 250 851 q 273 736 250 765 q 336 676 296 707 m 336 -146 l 336 -15 l 332 -15 q 197 -3 261 -15 q 78 39 133 10 l 76 247 q 133 185 104 210 q 191 144 161 160 q 256 122 221 129 q 331 115 290 115 l 336 115 l 336 443 l 222 522 q 160 570 189 546 q 112 624 132 594 q 81 690 92 653 q 69 781 69 728 q 90 885 69 836 q 146 973 110 935 q 231 1036 182 1011 q 336 1069 279 1061 l 336 1210 l 408 1210 l 408 1072 q 510 1059 457 1069 q 615 1024 564 1049 l 615 836 q 408 942 531 938 l 408 625 l 521 547 q 636 424 600 492 q 672 267 672 357 q 659 184 672 228 q 615 101 646 140 q 534 31 585 61 q 408 -10 483 1 l 408 -146 l 336 -146 z "},"%":{"ha":1338,"x_min":69,"x_max":1268,"o":"m 1000 -14 q 891 11 940 -14 q 806 80 842 36 q 751 182 771 124 q 732 308 732 240 q 751 438 732 376 q 806 545 771 499 q 891 619 842 592 q 1000 647 940 647 q 1109 619 1060 647 q 1194 545 1158 592 q 1249 438 1229 499 q 1268 308 1268 376 q 1249 182 1268 240 q 1194 80 1229 124 q 1109 11 1158 36 q 1000 -14 1060 -14 m 503 0 l 389 0 l 836 1054 l 947 1054 l 503 0 m 338 411 q 230 436 279 411 q 145 505 181 461 q 90 607 110 549 q 69 733 69 665 q 89 863 69 801 q 144 970 108 924 q 228 1044 179 1017 q 338 1072 278 1072 q 447 1044 397 1072 q 531 970 496 1017 q 586 863 567 924 q 606 733 606 801 q 586 607 606 665 q 531 505 567 549 q 447 436 496 461 q 338 411 397 411 m 1000 574 q 944 553 969 574 q 900 496 918 532 q 872 411 882 460 q 861 307 861 363 q 899 127 861 196 q 1000 58 938 58 q 1056 76 1031 58 q 1099 127 1081 94 q 1128 206 1118 160 q 1139 307 1139 251 q 1128 411 1139 363 q 1099 496 1118 460 q 1056 553 1081 532 q 1000 574 1031 574 m 338 999 q 281 978 307 999 q 238 922 256 957 q 210 837 219 886 q 200 732 200 788 q 238 553 200 621 q 338 485 275 485 q 438 553 400 485 q 476 732 476 621 q 466 836 476 788 q 437 921 456 885 q 393 978 418 957 q 338 999 368 999 z "},"&":{"ha":1121,"x_min":69,"x_max":1107,"o":"m 954 -11 q 902 -8 925 -11 q 856 7 879 -4 q 810 36 833 18 q 758 83 788 54 q 742 69 750 76 q 724 56 733 63 q 613 1 675 22 q 476 -19 550 -19 q 303 8 379 -19 q 176 81 228 36 q 97 184 124 126 q 69 300 69 242 q 86 397 69 350 q 131 484 103 443 q 198 558 160 525 q 279 617 236 592 q 228 719 240 676 q 217 807 217 763 q 240 914 217 865 q 306 998 264 963 q 403 1053 347 1033 q 522 1072 458 1072 q 637 1060 585 1072 q 742 1019 689 1049 l 742 814 q 650 908 704 872 q 542 943 596 943 q 419 903 456 943 q 383 807 383 864 q 401 731 383 774 q 463 643 419 689 l 782 297 q 802 358 793 325 q 811 422 811 390 q 797 498 811 463 q 749 574 783 533 l 985 574 q 955 371 985 468 q 871 203 925 274 q 942 126 911 158 q 1001 70 974 94 q 1053 27 1028 46 q 1107 -10 1078 8 l 954 -11 m 469 386 q 397 463 429 428 q 346 521 365 497 q 267 339 267 456 q 286 248 267 289 q 338 177 306 207 q 413 131 371 147 q 503 114 456 114 q 601 128 557 114 q 678 167 644 142 q 569 281 624 225 q 469 386 515 338 z "},"'":{"ha":247,"x_min":42,"x_max":219,"o":"m 219 1054 q 199 1006 208 1029 q 185 964 190 982 q 161 883 174 929 q 142 772 149 836 l 122 772 q 103 883 115 836 q 79 963 90 929 q 63 1006 72 982 q 42 1054 53 1029 l 219 1054 z "},"(":{"ha":442,"x_min":28,"x_max":414,"o":"m 232 531 q 240 362 232 443 q 269 201 249 281 q 323 42 289 122 q 408 -121 357 -37 l 360 -121 q 114 180 200 14 q 28 532 28 346 q 114 874 28 710 q 364 1167 200 1039 l 414 1167 q 272 846 311 1006 q 232 531 232 686 z "},")":{"ha":442,"x_min":28,"x_max":414,"o":"m 82 -121 l 33 -121 q 119 42 85 -37 q 173 201 153 122 q 201 362 193 281 q 210 531 210 443 q 170 846 210 686 q 28 1167 131 1006 l 76 1167 q 327 874 240 1039 q 414 532 414 710 q 328 180 414 346 q 82 -121 242 14 z "},"*":{"ha":679,"x_min":42,"x_max":638,"o":"m 564 886 l 444 821 l 558 756 l 638 725 l 575 621 l 517 663 l 389 732 l 389 600 l 399 525 l 272 525 l 281 597 l 281 731 l 161 664 l 104 622 l 42 725 l 97 747 l 229 821 l 107 889 l 42 915 l 104 1021 l 167 976 l 281 911 l 281 1047 l 274 1111 l 399 1111 l 389 1044 l 389 908 l 510 975 l 575 1022 l 638 915 l 564 886 z "},"+":{"ha":851,"x_min":69,"x_max":782,"o":"m 343 888 l 500 808 l 500 588 l 694 588 q 738 588 717 588 q 782 594 760 589 l 703 438 l 500 438 l 500 247 q 501 187 500 215 q 508 135 503 158 l 350 215 l 350 438 l 182 438 q 69 428 117 438 l 150 588 l 350 588 l 350 801 q 349 845 350 824 q 343 888 347 867 z "},",":{"ha":304,"x_min":56,"x_max":249,"o":"m 249 83 q 245 35 249 56 q 232 -11 242 15 q 197 -83 221 -43 q 142 -151 174 -122 l 99 -151 q 138 -94 118 -126 q 172 -12 157 -61 q 151 -15 158 -15 q 83 15 111 -15 q 56 89 56 46 q 83 160 56 131 q 151 190 111 190 q 220 159 192 190 q 249 83 249 128 z "},"-":{"ha":576,"x_min":35,"x_max":535,"o":"m 535 525 l 415 368 l 147 368 q 35 358 82 368 l 150 518 l 447 518 q 491 519 469 518 q 535 525 513 519 z "},".":{"ha":304,"x_min":56,"x_max":249,"o":"m 56 88 q 83 160 56 131 q 151 190 111 190 q 220 160 192 190 q 249 88 249 131 q 220 15 249 46 q 151 -15 192 -15 q 83 15 111 -15 q 56 88 56 46 z "},"/":{"ha":460,"x_min":-14,"x_max":474,"o":"m 113 -79 l -14 -79 l 346 1210 l 474 1210 l 113 -79 z "},":":{"ha":304,"x_min":56,"x_max":249,"o":"m 56 88 q 83 160 56 131 q 151 190 111 190 q 220 160 192 190 q 249 88 249 131 q 220 15 249 46 q 151 -15 192 -15 q 83 15 111 -15 q 56 88 56 46 m 56 696 q 83 769 56 739 q 151 799 111 799 q 220 769 192 799 q 249 696 249 739 q 220 624 249 654 q 151 593 192 593 q 83 624 111 593 q 56 696 56 654 z "},";":{"ha":304,"x_min":56,"x_max":249,"o":"m 56 696 q 83 769 56 739 q 151 799 111 799 q 220 769 192 799 q 249 696 249 739 q 220 624 249 654 q 151 593 192 593 q 83 624 111 593 q 56 696 56 654 m 249 83 q 245 35 249 56 q 232 -11 242 15 q 197 -83 221 -43 q 142 -151 174 -122 l 99 -151 q 138 -94 118 -126 q 172 -12 157 -61 q 151 -15 158 -15 q 83 15 111 -15 q 56 89 56 46 q 83 160 56 131 q 151 190 111 190 q 220 159 192 190 q 249 83 249 128 z "},"<":{"ha":863,"x_min":69,"x_max":793,"o":"m 792 749 l 278 515 l 697 326 q 743 309 721 315 q 792 300 765 303 l 792 126 l 69 478 l 69 554 l 688 858 q 742 889 718 874 q 793 928 767 904 l 792 749 z "},"=":{"ha":851,"x_min":69,"x_max":782,"o":"m 782 738 l 703 581 l 182 581 q 69 571 117 581 l 150 731 l 694 731 q 738 731 717 731 q 782 738 760 732 m 782 451 l 703 294 l 182 294 q 69 285 118 294 l 150 444 l 694 444 q 738 445 717 444 q 782 451 760 446 z "},">":{"ha":863,"x_min":69,"x_max":793,"o":"m 69 928 q 120 889 96 904 q 175 858 144 874 l 793 554 l 793 478 l 71 126 l 71 300 q 119 309 97 303 q 165 326 142 315 l 585 515 l 71 749 l 69 928 z "},"?":{"ha":743,"x_min":69,"x_max":674,"o":"m 597 603 q 559 562 579 582 q 518 522 539 542 q 476 485 497 503 q 435 450 456 468 q 365 385 390 410 q 340 339 340 361 q 347 317 340 328 q 379 279 353 306 l 360 254 q 330 274 344 264 q 304 292 315 283 q 273 326 285 307 q 261 365 261 346 q 297 450 261 407 q 338 497 319 475 q 376 542 357 519 q 426 603 406 576 q 458 656 446 631 q 476 706 471 681 q 482 758 482 731 q 467 831 482 797 q 428 889 453 864 q 369 928 403 914 q 299 942 336 942 q 196 917 246 942 q 94 832 146 893 l 69 851 q 113 935 86 894 q 178 1006 140 975 q 263 1054 215 1036 q 372 1072 311 1072 q 487 1050 432 1072 q 583 990 542 1028 q 649 903 625 953 q 674 796 674 853 q 653 692 674 740 q 597 603 633 644 m 367 -14 q 326 -5 344 -14 q 292 19 307 4 q 269 53 278 33 q 261 96 261 74 q 292 172 261 140 q 367 204 322 204 q 442 172 411 204 q 472 96 472 140 q 442 19 472 51 q 367 -14 411 -14 z "},"@":{"ha":1282,"x_min":56,"x_max":1226,"o":"m 688 69 q 612 9 656 33 q 515 -15 568 -15 q 420 6 460 -15 q 356 63 381 28 q 319 142 331 99 q 307 232 307 186 q 320 337 307 279 q 358 453 333 394 q 417 568 382 513 q 496 667 451 624 q 592 736 540 710 q 704 763 644 763 q 792 741 751 763 q 850 679 832 719 l 857 699 q 854 750 865 729 l 1014 750 q 997 699 1013 744 q 960 589 982 654 q 914 447 939 524 q 868 303 889 371 q 833 188 847 236 q 819 129 819 139 q 847 96 819 96 q 898 110 874 96 q 946 143 922 124 q 1085 312 1036 214 q 1133 522 1133 410 q 1098 695 1133 613 q 1001 840 1063 778 q 858 940 940 903 q 681 978 775 978 q 470 921 564 978 q 310 774 376 864 q 210 572 244 683 q 175 353 175 461 q 213 142 175 240 q 318 -30 251 43 q 474 -144 385 -103 q 664 -186 563 -186 q 882 -135 778 -186 q 1071 0 986 -83 l 1124 -53 q 1031 -142 1083 -101 q 917 -212 978 -183 q 792 -258 857 -242 q 661 -275 726 -275 q 421 -225 532 -275 q 228 -89 310 -175 q 101 111 147 -3 q 56 354 56 225 q 76 525 56 439 q 136 691 97 611 q 230 840 175 771 q 355 961 285 910 q 508 1042 425 1013 q 683 1072 590 1072 q 899 1028 800 1072 q 1072 908 999 983 q 1185 732 1144 832 q 1226 522 1226 632 q 1214 401 1226 460 q 1178 283 1201 342 q 1119 177 1157 231 q 1032 81 1081 124 q 926 10 983 38 q 811 -17 869 -17 q 730 6 763 -17 q 688 69 697 28 m 715 672 q 643 644 678 672 q 578 573 608 617 q 524 474 549 529 q 481 364 499 419 q 454 258 464 308 q 444 175 444 208 q 467 106 444 131 q 535 81 489 81 q 579 93 557 81 q 621 125 601 106 q 657 167 640 144 q 686 211 674 190 q 760 384 735 292 q 786 569 786 476 q 770 641 786 610 q 715 672 754 672 z "},"A":{"ha":949,"x_min":14,"x_max":935,"o":"m 935 0 l 682 0 q 690 47 690 24 q 679 100 690 69 l 635 215 l 271 215 l 222 86 q 210 39 211 58 q 215 0 210 19 l 14 0 q 65 53 44 19 q 100 125 85 86 l 476 1072 l 858 118 q 891 52 874 79 q 935 0 908 25 m 583 346 l 483 601 q 474 627 479 611 q 464 660 468 643 q 456 691 460 676 q 453 715 453 706 l 450 715 q 447 690 450 706 q 438 658 443 675 q 426 626 432 642 q 417 599 421 610 l 321 346 l 583 346 z "},"B":{"ha":785,"x_min":69,"x_max":736,"o":"m 736 296 q 710 168 736 224 q 643 75 685 113 q 547 19 601 38 q 436 0 493 0 l 69 0 q 96 47 89 25 q 103 107 103 69 l 101 943 q 95 1006 101 982 q 72 1054 89 1029 l 363 1054 q 494 1032 436 1054 q 592 972 553 1010 q 653 885 632 935 q 674 781 674 835 q 662 704 674 739 q 631 642 650 669 q 586 595 611 615 q 536 564 561 575 l 536 560 q 615 524 579 547 q 678 468 651 501 q 721 392 706 435 q 736 296 736 349 m 490 767 q 447 881 490 835 q 329 928 404 928 l 267 928 l 267 611 q 294 607 279 608 q 332 606 308 606 q 394 618 365 606 q 445 653 424 631 q 478 704 467 675 q 490 767 490 733 m 547 304 q 533 380 547 344 q 492 441 519 415 q 426 481 465 467 q 333 496 386 496 q 295 495 314 496 q 267 492 276 494 l 267 121 q 309 115 288 117 q 361 113 331 113 q 442 128 407 113 q 500 171 476 144 q 535 232 524 197 q 547 304 547 267 z "},"C":{"ha":990,"x_min":69,"x_max":935,"o":"m 935 81 q 798 10 876 35 q 626 -15 719 -15 q 427 19 526 -15 q 248 120 328 53 q 119 290 168 188 q 69 529 69 392 q 117 749 69 649 q 242 920 164 849 q 420 1032 321 992 q 624 1072 519 1072 q 713 1069 674 1072 q 786 1058 753 1065 q 848 1039 819 1050 q 906 1011 876 1028 l 906 810 q 834 877 869 851 q 763 917 799 903 q 692 937 728 932 q 617 942 656 942 q 499 915 560 942 q 389 837 439 889 q 306 709 339 785 q 274 533 274 633 q 301 360 274 438 q 376 228 329 283 q 484 144 422 174 q 614 115 546 115 q 933 274 817 115 l 935 81 z "},"D":{"ha":958,"x_min":69,"x_max":889,"o":"m 889 522 q 847 295 889 393 q 733 132 804 197 q 569 33 663 67 q 374 0 476 0 l 69 0 q 95 51 88 26 q 103 117 103 76 l 103 933 q 96 1002 103 974 q 69 1056 89 1031 l 321 1056 q 556 1017 451 1056 q 735 909 661 979 q 849 740 810 839 q 889 522 889 642 m 693 524 q 669 692 693 618 q 601 817 644 765 q 497 894 558 868 q 364 921 436 921 l 272 921 l 271 131 q 320 122 297 124 q 376 119 343 119 q 501 147 443 119 q 601 226 558 174 q 668 353 643 278 q 693 524 693 428 z "},"E":{"ha":751,"x_min":69,"x_max":696,"o":"m 696 192 q 681 104 688 143 q 669 39 674 69 q 663 0 664 8 l 69 0 q 97 57 89 26 q 104 139 104 88 l 104 946 q 100 1007 104 982 q 85 1056 96 1032 l 522 1056 q 595 1058 569 1056 q 646 1068 621 1061 l 632 893 q 568 914 600 908 q 488 919 536 919 l 285 919 l 285 621 l 475 621 q 544 626 519 621 q 596 647 568 632 l 596 464 q 567 476 581 472 q 540 483 554 481 q 511 487 526 486 q 475 488 496 488 l 285 488 l 285 151 q 299 145 290 149 q 317 139 307 142 q 348 135 325 136 q 392 133 371 133 l 453 133 l 513 133 q 696 192 621 133 z "},"F":{"ha":685,"x_min":69,"x_max":636,"o":"m 636 1071 l 622 893 q 558 914 590 908 q 478 919 526 919 l 268 919 l 268 619 l 467 619 q 535 625 507 619 q 588 642 563 631 l 588 464 q 536 482 561 478 q 467 486 511 486 l 268 486 l 268 185 q 274 73 268 118 q 300 0 281 28 l 69 0 q 90 56 85 26 q 96 139 96 86 l 96 946 q 90 1006 96 976 q 71 1056 85 1035 l 508 1056 q 583 1060 556 1056 q 636 1071 611 1064 z "},"G":{"ha":1040,"x_min":69,"x_max":978,"o":"m 978 489 q 952 430 958 458 q 946 350 946 401 l 946 86 q 786 13 872 38 q 588 -12 700 -12 q 383 28 478 -12 q 219 143 289 69 q 109 318 149 217 q 69 539 69 419 q 108 730 69 635 q 218 901 146 825 q 392 1024 290 976 q 622 1071 494 1071 q 719 1067 676 1071 q 797 1057 761 1064 q 863 1039 832 1050 q 926 1013 894 1028 l 926 792 q 860 865 894 836 q 788 911 825 894 q 708 935 750 928 q 618 942 665 942 q 493 910 556 942 q 381 824 431 878 q 301 697 332 769 q 269 544 269 625 q 297 374 269 453 q 372 238 325 294 q 482 148 419 181 q 614 115 544 115 q 712 125 674 115 q 782 157 750 135 l 782 350 q 781 395 782 376 q 775 429 779 414 q 763 458 771 444 q 743 489 756 472 l 978 489 z "},"H":{"ha":994,"x_min":69,"x_max":925,"o":"m 925 1054 q 897 1006 904 1028 q 890 942 890 983 l 889 114 q 895 54 889 78 q 924 0 901 31 l 679 0 q 697 27 690 15 q 708 51 704 39 q 712 78 711 64 q 713 113 713 93 l 714 482 l 275 482 l 275 129 q 276 85 275 104 q 282 52 278 67 q 293 26 286 38 q 311 0 300 14 l 69 0 q 97 53 90 28 q 103 128 103 79 l 103 939 q 97 1005 103 979 q 72 1054 92 1031 l 308 1054 q 282 1002 289 1029 q 275 933 275 975 l 275 611 l 714 611 l 714 944 q 708 1007 714 983 q 682 1054 701 1031 l 925 1054 z "},"I":{"ha":422,"x_min":83,"x_max":339,"o":"m 339 0 l 83 0 q 113 58 104 29 q 121 128 121 88 l 121 940 q 114 1003 121 972 q 88 1056 107 1033 l 336 1056 q 309 1001 317 1032 q 301 935 301 969 l 301 129 q 339 0 301 51 z "},"J":{"ha":676,"x_min":0,"x_max":593,"o":"m 563 929 l 563 393 q 544 240 563 313 q 483 110 525 167 q 371 21 440 54 q 200 -12 301 -12 q 102 -3 153 -12 q 0 31 51 7 l 17 69 q 71 52 49 57 q 113 47 93 47 q 237 74 186 47 q 319 145 288 100 q 363 251 350 190 q 376 381 376 311 l 376 929 q 369 1001 376 974 q 343 1056 361 1029 l 593 1056 q 569 1000 575 1028 q 563 929 563 972 z "},"K":{"ha":851,"x_min":69,"x_max":838,"o":"m 567 0 q 577 56 575 35 q 579 94 579 76 q 562 231 579 165 q 511 352 544 297 q 428 448 478 407 q 314 508 378 489 l 276 460 l 276 129 q 278 82 276 101 q 285 48 281 63 q 296 22 289 33 q 313 0 303 11 l 69 0 q 98 51 92 24 q 104 128 104 79 l 104 940 q 98 1002 104 976 q 72 1056 92 1028 l 311 1056 q 283 1001 289 1026 q 276 935 276 975 l 276 661 l 481 929 q 513 992 506 963 q 517 1054 519 1022 l 782 1054 q 738 1034 757 1044 q 703 1010 719 1024 q 670 978 686 996 q 635 933 654 960 l 400 617 q 538 540 478 589 q 644 435 599 492 q 717 317 689 378 q 760 203 746 256 q 801 67 786 103 q 819 31 808 49 q 838 0 831 13 l 567 0 z "},"L":{"ha":719,"x_min":69,"x_max":704,"o":"m 704 196 q 689 106 696 146 q 676 40 682 71 q 669 0 671 8 l 69 0 q 96 54 88 22 q 104 139 104 86 l 104 939 q 97 1012 104 988 q 74 1056 89 1036 l 321 1056 q 292 1011 300 1035 q 285 933 285 988 l 285 494 l 285 150 q 306 140 294 143 q 335 135 314 138 q 378 133 357 133 l 439 133 l 506 133 q 704 196 626 133 z "},"M":{"ha":1097,"x_min":56,"x_max":1042,"o":"m 551 418 l 556 418 q 572 460 563 438 q 594 511 582 483 l 800 965 q 817 1007 808 986 q 832 1056 825 1028 l 1019 1056 q 992 1026 1003 1040 q 976 996 982 1011 q 967 961 969 981 q 967 917 965 942 l 1000 115 q 1013 49 1003 75 q 1042 0 1022 24 l 806 0 q 827 51 822 24 q 831 117 832 78 l 811 671 l 807 671 q 783 610 796 642 q 751 535 771 579 l 526 32 l 314 507 q 283 582 297 544 q 257 653 268 619 l 253 653 l 222 111 q 224 48 219 71 q 247 0 228 25 l 56 0 q 77 48 72 26 q 85 107 82 69 l 131 935 q 123 999 133 971 q 86 1056 113 1028 l 275 1056 q 291 1005 285 1022 q 308 965 297 988 l 513 508 q 535 459 525 481 q 551 418 544 438 z "},"N":{"ha":963,"x_min":69,"x_max":893,"o":"m 733 408 l 733 943 q 727 1005 733 982 q 703 1056 721 1028 l 893 1056 q 869 1003 872 1026 q 865 943 865 981 l 865 -19 l 351 619 q 312 674 332 644 q 269 740 292 703 l 265 740 l 265 122 q 273 50 265 75 q 303 0 281 25 l 96 0 q 121 53 113 28 q 129 126 129 78 l 129 904 q 116 991 129 956 q 69 1056 103 1026 l 238 1056 q 266 1017 256 1031 q 288 988 276 1003 l 642 532 q 667 499 656 514 q 688 471 678 485 q 707 442 697 457 q 729 408 717 426 l 733 408 z "},"O":{"ha":1093,"x_min":69,"x_max":1024,"o":"m 547 -15 q 361 27 449 -15 q 209 142 274 69 q 107 313 144 215 q 69 522 69 411 q 107 732 69 632 q 209 908 144 832 q 361 1028 274 983 q 547 1072 449 1072 q 738 1028 650 1072 q 888 908 825 983 q 988 732 951 832 q 1024 522 1024 632 q 988 314 1024 411 q 890 143 953 217 q 739 27 826 69 q 547 -15 651 -15 m 549 942 q 441 910 492 942 q 352 822 390 878 q 292 692 314 767 q 269 529 269 617 q 292 366 269 442 q 352 235 314 290 q 441 147 390 179 q 549 115 492 115 q 660 147 610 115 q 746 235 710 179 q 802 366 782 290 q 822 529 822 442 q 804 692 822 617 q 751 822 786 767 q 665 910 715 878 q 549 942 614 942 z "},"P":{"ha":757,"x_min":69,"x_max":708,"o":"m 413 424 l 279 424 l 279 171 q 281 108 279 135 q 288 61 283 81 q 299 27 292 42 q 317 0 306 13 l 71 0 q 101 60 93 26 q 108 160 108 94 l 107 943 q 98 1011 107 986 q 69 1056 89 1036 l 407 1056 q 538 1022 482 1056 q 633 939 594 989 q 690 832 671 889 q 708 729 708 775 q 688 626 708 681 q 631 527 668 572 q 538 453 593 482 q 413 424 483 424 m 358 924 q 319 924 343 924 q 279 922 296 924 l 279 546 l 363 546 q 478 592 431 546 q 526 729 526 639 q 515 806 526 771 q 481 867 503 842 q 427 908 458 893 q 358 924 396 924 z "},"Q":{"ha":1100,"x_min":69,"x_max":1093,"o":"m 889 -76 q 794 -56 839 -76 q 703 8 750 -36 q 631 -10 669 -3 q 549 -18 592 -18 q 363 25 450 -18 q 210 141 275 68 q 107 312 144 214 q 69 521 69 410 q 107 732 69 632 q 210 907 144 832 q 363 1026 275 982 q 549 1071 450 1071 q 738 1026 650 1071 q 888 907 825 982 q 988 732 951 832 q 1024 521 1024 632 q 981 287 1024 399 q 847 94 939 175 q 899 46 867 64 q 963 28 931 28 q 1010 35 983 28 q 1069 67 1038 43 l 1093 40 q 997 -45 1049 -14 q 889 -76 946 -76 m 549 942 q 441 910 492 942 q 351 822 390 878 q 290 690 313 765 q 268 528 268 615 q 290 365 268 440 q 351 233 313 289 q 441 144 390 176 q 549 113 492 113 q 660 144 610 113 q 747 233 711 176 q 803 365 783 289 q 824 528 824 440 q 805 690 824 615 q 751 822 786 765 q 665 910 715 878 q 549 942 614 942 z "},"R":{"ha":815,"x_min":69,"x_max":808,"o":"m 529 756 q 476 903 529 847 q 326 960 422 960 l 279 961 l 279 551 l 328 553 q 474 611 419 556 q 529 756 529 667 m 463 486 l 463 482 q 622 345 558 429 q 729 149 685 261 q 762 75 742 114 q 808 0 782 36 l 526 0 q 538 56 536 36 q 540 94 540 76 q 519 215 540 157 q 463 320 499 272 q 380 402 428 368 q 279 449 332 436 l 279 171 q 281 110 279 135 q 286 66 282 85 q 298 32 290 47 q 317 0 306 17 l 71 0 q 89 26 82 13 q 100 56 96 39 q 106 99 104 74 q 108 160 108 124 l 107 943 q 99 1013 107 989 q 69 1056 90 1038 l 375 1056 q 501 1031 443 1056 q 602 966 560 1007 q 668 872 644 925 q 692 758 692 818 q 674 668 692 711 q 625 590 656 625 q 552 527 594 554 q 463 486 510 500 z "},"S":{"ha":728,"x_min":69,"x_max":672,"o":"m 332 -15 q 78 39 190 -15 l 76 246 q 190 147 126 179 q 325 115 253 115 q 449 150 403 115 q 494 247 494 185 q 474 326 494 292 q 404 396 453 361 l 222 525 q 160 574 189 549 q 112 631 132 600 q 81 702 92 663 q 69 794 69 742 q 94 903 69 853 q 163 992 119 954 q 265 1051 207 1029 q 390 1072 324 1072 q 518 1060 467 1072 q 615 1022 569 1047 l 615 838 q 520 919 569 896 q 404 942 471 942 q 294 905 339 942 q 250 810 250 868 q 281 726 250 758 q 364 657 311 694 l 528 540 q 639 423 606 485 q 672 279 672 361 q 656 186 672 238 q 601 90 640 135 q 497 15 563 44 q 332 -15 431 -15 z "},"T":{"ha":808,"x_min":28,"x_max":781,"o":"m 633 919 l 499 918 l 499 151 q 499 107 499 126 q 503 71 500 88 q 512 38 507 54 q 525 0 517 21 l 292 0 q 313 72 308 40 q 318 151 318 104 l 318 919 l 171 919 q 88 913 118 919 q 28 888 57 907 l 28 1069 q 136 1056 82 1056 l 674 1056 q 706 1056 692 1056 q 731 1058 719 1057 q 753 1063 742 1060 q 781 1069 765 1065 l 781 888 q 711 912 744 904 q 633 919 678 919 z "},"U":{"ha":944,"x_min":69,"x_max":875,"o":"m 844 911 l 844 319 q 815 171 844 233 q 735 68 785 108 q 621 8 686 28 q 485 -12 556 -12 q 319 13 392 -12 q 197 87 247 39 q 121 203 147 135 q 94 358 94 272 l 94 908 q 94 956 94 938 q 91 991 93 975 q 84 1022 89 1007 q 69 1056 79 1036 l 310 1056 q 292 1022 299 1036 q 282 992 286 1007 q 276 957 278 976 q 275 908 275 938 l 275 367 q 329 183 275 250 q 492 117 383 117 q 644 176 588 117 q 700 342 700 236 l 700 913 q 699 961 700 942 q 695 996 699 981 q 686 1024 692 1011 q 672 1054 681 1038 l 875 1054 q 859 1022 865 1036 q 850 994 853 1008 q 846 960 847 979 q 844 911 844 940 z "},"V":{"ha":985,"x_min":21,"x_max":964,"o":"m 524 339 q 542 401 532 372 q 568 475 551 431 l 735 921 q 755 993 751 965 q 754 1056 758 1021 l 964 1056 q 931 1017 944 1033 q 907 982 918 1000 q 885 942 896 964 q 863 888 875 919 l 496 -18 l 139 878 q 115 934 126 910 q 90 978 103 958 q 60 1016 76 997 q 21 1056 43 1035 l 296 1056 q 292 1021 293 1036 q 292 991 290 1006 q 299 960 294 976 q 310 925 303 944 l 479 475 q 504 401 496 431 q 521 339 513 372 l 524 339 z "},"W":{"ha":1308,"x_min":21,"x_max":1288,"o":"m 914 431 q 929 490 921 464 q 949 549 938 517 l 1072 921 q 1083 990 1085 958 q 1069 1054 1081 1021 l 1288 1054 q 1259 1022 1272 1039 q 1235 986 1246 1006 q 1213 942 1224 967 q 1193 888 1203 918 l 882 -15 l 683 585 q 676 606 679 597 q 671 625 674 615 q 665 646 668 635 q 660 672 663 657 l 656 672 q 642 624 647 640 q 629 583 638 607 l 421 -15 l 129 878 q 21 1056 90 992 l 283 1056 q 280 994 276 1019 q 297 925 283 968 l 415 553 q 434 492 426 517 q 449 432 442 467 l 453 432 q 469 494 460 468 q 489 553 478 521 l 596 868 q 609 969 615 926 q 571 1056 603 1013 l 792 1056 q 760 971 761 1013 q 776 874 758 929 l 879 547 q 897 487 890 510 q 910 431 903 464 l 914 431 z "},"X":{"ha":901,"x_min":14,"x_max":888,"o":"m 464 686 q 473 705 468 696 q 485 725 478 714 q 501 751 492 736 q 522 789 510 767 l 615 944 q 636 1000 632 974 q 632 1056 640 1026 l 888 1056 q 849 1036 867 1046 q 817 1013 832 1026 q 789 980 803 999 q 758 935 775 961 l 533 561 l 761 153 q 790 104 778 124 q 815 69 801 85 q 846 37 829 53 q 888 0 863 21 l 610 0 q 609 57 614 31 q 586 117 604 83 l 482 304 q 451 361 464 336 q 429 407 438 386 l 425 407 q 403 361 415 385 q 372 306 392 338 l 271 135 q 247 77 256 108 q 242 0 238 46 l 14 0 q 47 32 32 18 q 74 61 61 46 q 99 94 86 76 q 126 139 111 113 l 356 529 l 132 935 q 107 976 118 960 q 84 1006 96 993 q 58 1031 72 1019 q 22 1056 43 1043 l 292 1056 q 296 1005 292 1028 q 318 950 300 982 l 410 788 q 443 726 433 746 q 460 686 453 706 l 464 686 z "},"Y":{"ha":958,"x_min":21,"x_max":938,"o":"m 518 617 q 545 670 529 642 q 589 746 561 699 l 711 963 q 731 1008 726 989 q 733 1054 736 1028 l 938 1054 q 913 1028 924 1040 q 893 1001 903 1015 q 872 969 883 988 q 844 924 860 950 l 589 485 l 589 113 q 595 46 589 69 q 615 0 601 22 l 386 0 q 409 48 403 25 q 415 117 415 71 l 415 460 l 121 936 q 74 1003 94 979 q 21 1056 53 1028 l 288 1056 q 311 954 283 1001 l 442 744 q 486 670 469 699 q 514 617 503 642 l 518 617 z "},"Z":{"ha":785,"x_min":42,"x_max":743,"o":"m 71 896 l 71 1065 q 131 1058 104 1060 q 194 1056 158 1056 l 733 1056 l 289 136 l 625 136 q 696 140 672 136 q 743 156 719 144 l 743 -11 q 697 -2 719 -4 q 632 0 674 0 l 42 0 l 486 919 l 199 919 q 124 915 154 919 q 71 896 94 910 z "},"[":{"ha":400,"x_min":42,"x_max":386,"o":"m 271 -335 l 42 -335 l 42 1100 l 271 1100 q 313 1101 296 1100 q 342 1103 329 1101 q 365 1106 354 1104 q 386 1108 375 1107 l 308 969 l 193 969 l 193 -204 l 308 -204 l 386 -343 q 343 -337 367 -339 q 271 -335 319 -335 z "},"\\":{"ha":460,"x_min":-14,"x_max":474,"o":"m 346 -79 l -14 1210 l 113 1210 l 474 -79 l 346 -79 z "},"]":{"ha":400,"x_min":14,"x_max":358,"o":"m 129 -335 q 57 -337 81 -335 q 14 -343 33 -339 l 92 -204 l 207 -204 l 207 969 l 92 969 l 14 1108 q 35 1106 25 1107 q 58 1103 46 1104 q 88 1101 71 1101 q 129 1100 104 1100 l 358 1100 l 358 -335 l 129 -335 z "},"^":{"ha":843,"x_min":69,"x_max":774,"o":"m 643 438 l 424 896 l 200 438 l 69 438 l 372 1058 l 479 1058 l 774 438 l 643 438 z "},"_":{"ha":728,"x_min":0,"x_max":728,"o":"m 728 -193 l 0 -193 l 0 -101 l 728 -101 l 728 -193 z "},"`":{"ha":747,"x_min":185,"x_max":460,"o":"m 364 847 l 185 1056 l 375 1056 l 460 847 l 364 847 z "},"a":{"ha":747,"x_min":49,"x_max":692,"o":"m 501 -1 l 501 54 q 416 1 463 18 q 303 -15 369 -15 q 217 -1 261 -15 q 135 42 172 14 q 73 114 97 71 q 49 214 49 157 q 65 297 49 261 q 108 359 81 333 q 169 403 135 385 q 242 433 204 421 q 318 454 279 446 q 393 471 357 463 q 499 500 460 483 l 499 508 q 488 574 499 547 q 458 616 476 600 q 417 638 440 632 q 369 644 394 644 q 251 615 310 644 q 131 522 192 585 l 154 697 q 265 749 208 733 q 385 764 322 764 q 583 696 508 764 q 658 492 658 628 l 658 121 q 665 51 658 76 q 692 -1 672 25 l 501 -1 m 496 374 q 412 353 460 363 q 322 328 364 343 q 245 285 274 311 q 217 214 217 258 q 250 141 217 169 q 343 113 283 113 q 427 131 389 113 q 496 182 465 150 l 496 374 z "},"b":{"ha":851,"x_min":56,"x_max":796,"o":"m 463 -14 q 361 4 410 -14 q 271 61 313 22 l 271 0 l 60 0 q 85 33 75 18 q 100 67 94 49 q 108 110 106 86 q 110 168 110 133 l 110 875 q 107 940 110 913 q 98 987 104 967 q 81 1023 92 1007 q 56 1056 71 1039 l 275 1056 l 275 707 q 467 764 353 764 q 599 736 539 764 q 703 657 660 708 q 772 533 747 606 q 796 372 796 461 q 771 198 796 271 q 701 78 746 125 q 594 8 656 31 q 463 -14 533 -14 m 436 636 q 349 614 390 636 q 275 544 307 592 l 275 211 q 350 142 304 167 q 439 117 396 117 q 574 180 519 117 q 628 372 628 243 q 578 569 628 503 q 436 636 528 636 z "},"c":{"ha":675,"x_min":56,"x_max":619,"o":"m 415 -15 q 268 10 335 -15 q 154 84 201 35 q 81 205 107 133 q 56 371 56 276 q 83 535 56 463 q 157 658 110 607 q 267 737 204 710 q 403 764 331 764 q 606 703 519 764 l 606 533 q 522 616 565 592 q 417 640 479 640 q 344 623 379 640 q 282 572 308 606 q 240 487 256 538 q 224 371 224 436 q 240 257 224 306 q 283 176 256 208 q 347 128 311 144 q 424 111 383 111 q 531 136 488 111 q 619 219 575 161 l 619 44 q 533 1 583 17 q 415 -15 482 -15 z "},"d":{"ha":851,"x_min":56,"x_max":796,"o":"m 582 0 l 582 50 q 492 2 542 18 q 389 -14 442 -14 q 257 10 318 -14 q 151 81 196 33 q 81 203 106 129 q 56 378 56 276 q 81 538 56 465 q 151 664 107 611 q 256 746 196 717 q 386 775 317 775 q 490 762 444 775 q 578 718 536 749 l 578 876 q 566 986 578 949 q 522 1056 554 1024 l 742 1056 l 743 182 q 745 116 743 143 q 753 68 747 89 q 769 32 760 47 q 796 0 779 17 l 582 0 m 578 556 q 505 622 550 597 q 415 647 460 647 q 276 577 328 647 q 224 378 224 507 q 278 181 224 249 q 413 114 332 114 q 502 139 458 114 q 578 210 546 164 l 578 556 z "},"e":{"ha":778,"x_min":56,"x_max":722,"o":"m 225 328 q 288 169 233 228 q 433 111 342 111 q 565 137 504 111 q 682 226 625 163 l 653 47 q 554 1 613 17 q 425 -15 496 -15 q 275 10 343 -15 q 158 83 207 35 q 83 204 110 132 q 56 371 56 276 q 83 539 56 465 q 158 663 111 613 q 265 738 204 713 q 390 764 325 764 q 517 737 458 764 q 621 656 576 710 q 692 519 665 601 q 722 328 718 438 l 225 328 m 389 639 q 290 592 335 639 q 231 456 246 544 l 547 456 q 493 592 536 544 q 389 639 450 639 z "},"f":{"ha":457,"x_min":35,"x_max":492,"o":"m 458 869 q 418 923 447 901 q 361 944 389 944 q 288 860 288 944 l 288 750 l 443 750 l 443 622 l 286 622 l 286 111 q 294 45 286 69 q 318 0 301 21 l 86 0 q 114 45 106 22 q 122 113 122 68 l 124 622 l 35 622 l 35 750 l 124 750 l 124 854 q 180 1013 124 953 q 332 1074 236 1074 q 417 1061 379 1074 q 492 1018 456 1049 l 458 869 z "},"g":{"ha":851,"x_min":56,"x_max":810,"o":"m 810 750 q 775 715 789 731 q 754 681 761 699 q 744 641 747 663 q 742 589 742 619 l 742 -43 q 662 -254 742 -175 q 424 -333 582 -333 q 282 -318 349 -333 q 151 -267 215 -303 l 118 -85 q 253 -176 179 -147 q 404 -206 326 -206 q 582 -50 582 -206 l 582 71 q 489 16 538 32 q 372 0 440 0 q 254 22 311 0 q 153 88 197 43 q 83 201 110 132 q 56 367 56 271 q 81 527 56 454 q 152 653 107 600 q 258 735 197 706 q 390 764 319 764 q 499 745 449 764 q 582 694 549 726 l 582 750 l 810 750 m 578 221 l 578 544 q 505 611 550 586 q 415 636 460 636 q 276 569 328 636 q 224 371 224 501 q 240 264 224 310 q 283 188 256 218 q 344 144 310 158 q 415 129 379 129 q 506 153 461 129 q 578 221 550 178 z "},"h":{"ha":857,"x_min":56,"x_max":801,"o":"m 568 0 q 597 49 589 25 q 604 114 604 72 l 604 407 q 559 592 604 536 q 436 647 514 647 q 353 624 396 647 q 275 556 310 601 l 275 176 q 276 108 275 135 q 280 63 276 82 q 290 31 283 44 q 310 0 297 17 l 60 0 q 85 31 75 17 q 100 65 94 46 q 108 112 106 85 q 110 182 110 139 l 110 875 q 107 938 110 913 q 98 984 104 964 q 81 1021 92 1004 q 56 1056 71 1038 l 275 1056 l 275 715 q 467 775 360 775 q 589 750 533 775 q 685 680 644 725 q 747 571 725 635 q 769 431 769 507 l 769 117 q 776 49 769 74 q 801 0 782 25 l 568 0 z "},"i":{"ha":399,"x_min":83,"x_max":315,"o":"m 315 0 l 83 0 q 112 48 104 26 q 119 110 119 69 l 121 626 l 121 643 q 113 707 121 685 q 85 750 106 729 l 283 750 l 282 111 q 290 53 282 79 q 315 0 297 26 m 103 974 q 131 1044 103 1015 q 200 1074 160 1074 q 269 1044 240 1074 q 297 974 297 1015 q 269 902 297 932 q 200 872 240 872 q 131 902 160 872 q 103 974 103 932 z "},"j":{"ha":376,"x_min":-56,"x_max":293,"o":"m 279 -17 q 222 -253 276 -174 q 61 -333 168 -333 q 6 -329 36 -333 q -56 -314 -24 -325 l -56 -287 q 77 -231 38 -287 q 117 -37 117 -175 l 117 638 q 82 750 117 707 l 279 750 l 281 35 q 280 18 281 28 q 279 1 279 8 l 279 -17 m 99 974 q 127 1044 99 1015 q 196 1074 156 1074 q 265 1044 236 1074 q 293 974 293 1015 q 265 902 293 932 q 196 872 236 872 q 127 902 156 872 q 99 974 99 932 z "},"k":{"ha":797,"x_min":56,"x_max":783,"o":"m 783 0 l 504 0 q 523 42 517 18 q 529 93 529 65 q 523 159 529 125 q 502 226 517 193 q 464 287 488 258 q 404 336 440 315 q 348 363 376 351 q 292 376 319 374 l 274 357 l 274 0 l 57 0 q 83 33 72 17 q 99 70 93 50 q 106 117 104 90 q 108 182 108 143 l 108 875 q 106 938 108 913 q 99 982 104 963 q 83 1018 93 1001 q 56 1056 72 1035 l 274 1056 l 274 513 l 436 671 q 462 710 456 690 q 468 750 468 729 l 726 751 q 656 714 690 736 q 592 663 622 692 l 388 461 q 496 414 450 442 q 581 349 542 386 q 667 237 632 299 q 729 103 703 175 q 753 43 742 67 q 783 0 765 19 z "},"l":{"ha":397,"x_min":83,"x_max":314,"o":"m 83 0 q 113 50 106 28 q 119 113 119 72 l 121 931 l 121 946 q 114 1010 121 989 q 88 1056 107 1032 l 283 1056 l 282 114 q 288 49 282 72 q 314 0 294 26 l 83 0 z "},"m":{"ha":1231,"x_min":56,"x_max":1175,"o":"m 944 0 q 972 49 964 25 q 979 113 979 72 l 979 442 q 941 596 979 553 q 840 639 903 639 q 763 618 804 639 q 694 554 722 597 q 705 492 701 525 q 708 425 708 460 l 708 115 q 715 46 708 69 q 739 0 721 22 l 504 0 q 535 51 526 26 q 543 113 543 76 l 543 164 l 543 179 l 543 432 q 507 592 543 544 q 404 639 471 639 q 337 616 375 639 q 272 549 299 593 l 272 174 q 273 110 272 135 q 277 67 274 85 q 288 33 281 49 q 307 0 294 18 l 57 0 q 81 33 71 18 q 96 65 90 47 q 104 105 101 82 q 107 164 107 128 l 107 574 q 95 683 107 646 q 56 750 83 719 l 268 750 l 268 693 q 302 720 282 707 q 344 743 322 733 q 390 758 367 753 q 435 764 414 764 q 551 740 500 764 q 636 672 601 717 q 746 742 692 721 q 871 764 800 764 q 990 740 939 764 q 1075 674 1040 717 q 1127 570 1110 631 q 1144 438 1144 510 l 1144 115 q 1150 47 1144 71 q 1175 0 1156 24 l 944 0 z "},"n":{"ha":853,"x_min":56,"x_max":797,"o":"m 567 0 q 583 23 576 13 q 594 46 590 33 q 600 74 599 58 q 601 113 601 90 l 601 401 q 558 584 601 529 q 435 639 514 639 q 353 616 396 639 q 275 547 310 593 l 275 174 q 276 110 275 135 q 280 66 276 85 q 290 33 283 47 q 310 0 297 18 l 57 0 q 84 33 74 18 q 100 67 94 49 q 108 113 106 86 q 110 179 110 139 l 110 574 q 108 635 110 610 q 99 679 106 660 q 83 715 93 699 q 56 750 72 731 l 271 750 l 271 690 q 363 745 311 726 q 465 764 414 764 q 588 740 532 764 q 683 670 643 715 q 744 563 722 625 q 767 425 767 500 l 767 115 q 772 47 767 69 q 797 0 778 25 l 567 0 z "},"o":{"ha":829,"x_min":56,"x_max":774,"o":"m 415 -14 q 270 10 336 -14 q 156 81 204 33 q 82 202 108 129 q 56 372 56 275 q 82 532 56 460 q 156 656 108 604 q 269 735 203 707 q 414 764 335 764 q 558 735 492 764 q 672 656 624 707 q 747 532 719 604 q 774 372 774 460 q 748 201 774 274 q 675 81 722 129 q 562 10 628 33 q 415 -14 496 -14 m 414 639 q 273 569 322 639 q 224 372 224 500 q 278 178 224 244 q 413 113 332 113 q 488 129 453 113 q 549 179 524 146 q 590 261 575 213 q 606 372 606 310 q 556 569 606 500 q 414 639 506 639 z "},"p":{"ha":851,"x_min":56,"x_max":796,"o":"m 463 -15 q 275 44 356 -15 l 275 -124 q 276 -190 275 -164 q 281 -235 278 -215 q 292 -270 285 -254 q 313 -306 300 -286 l 56 -306 q 83 -272 72 -287 q 99 -235 93 -256 q 108 -189 106 -215 q 110 -124 110 -162 l 110 571 q 107 633 110 606 q 97 681 104 660 q 80 718 90 701 q 56 750 69 735 l 271 750 l 271 693 q 358 746 307 728 q 468 764 408 764 q 601 736 540 764 q 704 657 661 708 q 772 533 747 606 q 796 372 796 461 q 771 198 796 271 q 701 78 746 125 q 594 8 656 31 q 463 -15 533 -15 m 436 636 q 349 615 390 636 q 275 544 307 593 l 275 208 q 350 139 304 164 q 439 114 396 114 q 574 179 519 114 q 628 372 628 244 q 578 569 628 503 q 436 636 528 636 z "},"q":{"ha":850,"x_min":56,"x_max":794,"o":"m 742 569 l 743 -124 q 745 -191 743 -164 q 753 -237 747 -218 q 769 -272 758 -257 q 794 -306 779 -287 l 578 -306 l 578 44 q 490 0 538 15 q 389 -15 442 -15 q 257 8 318 -15 q 151 78 196 31 q 81 198 106 125 q 56 372 56 271 q 82 531 56 460 q 153 655 108 603 q 259 735 199 707 q 389 764 319 764 q 499 745 449 764 q 582 694 550 726 l 582 750 l 794 750 q 768 716 778 732 q 752 680 758 700 q 744 633 746 660 q 742 569 742 607 m 578 544 q 505 611 550 586 q 415 636 460 636 q 276 569 328 636 q 224 372 224 503 q 278 179 224 244 q 413 114 332 114 q 502 138 458 114 q 578 208 546 163 l 578 544 z "},"r":{"ha":550,"x_min":56,"x_max":550,"o":"m 506 526 q 393 613 467 613 q 306 564 339 613 q 272 422 274 515 l 272 135 q 281 56 272 85 q 308 0 289 26 l 61 0 q 84 32 75 17 q 99 66 93 47 q 106 108 104 85 q 108 164 108 131 l 108 574 q 97 676 108 638 q 56 750 85 714 l 272 750 l 272 639 q 349 731 303 697 q 444 764 396 764 q 496 756 469 764 q 550 726 522 749 l 506 526 z "},"s":{"ha":528,"x_min":56,"x_max":500,"o":"m 246 -15 q 150 -4 199 -15 q 61 28 101 7 l 61 210 q 239 111 133 111 q 319 137 292 111 q 346 203 346 163 q 335 247 346 228 q 306 285 325 267 q 261 318 289 300 q 235 335 249 326 q 210 351 222 343 q 155 388 182 368 q 106 434 128 408 q 69 492 83 460 q 56 565 56 524 q 120 710 56 657 q 296 764 185 764 q 385 747 340 764 q 461 701 431 729 l 461 538 q 394 609 439 581 q 300 638 349 638 q 235 617 257 638 q 214 575 214 597 q 224 533 214 551 q 251 500 233 515 q 272 484 261 492 q 296 468 283 476 q 322 453 308 461 q 349 436 335 444 q 402 399 375 419 q 451 352 429 379 q 487 291 474 325 q 500 213 500 257 q 431 47 500 108 q 246 -15 363 -15 z "},"t":{"ha":531,"x_min":35,"x_max":503,"o":"m 344 -15 q 256 0 296 -15 q 189 43 217 15 q 146 108 161 71 q 131 189 131 144 l 131 622 l 35 622 l 294 964 l 294 750 l 478 750 l 478 622 l 294 622 l 294 210 q 317 140 294 165 q 372 114 340 114 q 445 137 411 114 q 503 199 479 160 l 503 31 q 433 -3 474 10 q 344 -15 392 -15 z "},"u":{"ha":819,"x_min":49,"x_max":764,"o":"m 565 0 l 565 61 q 481 6 529 25 q 381 -14 433 -14 q 261 10 315 -14 q 169 80 207 35 q 110 188 131 125 q 89 325 89 250 l 89 608 q 80 694 89 665 q 49 750 71 722 l 254 750 l 254 349 q 295 166 254 221 q 410 111 336 111 q 496 137 454 111 q 561 203 538 163 l 561 576 q 560 642 561 615 q 554 687 558 668 q 544 720 550 706 q 528 750 538 735 l 726 750 l 726 150 q 728 94 726 117 q 733 56 729 72 q 745 26 738 39 q 764 0 753 14 l 565 0 z "},"v":{"ha":735,"x_min":7,"x_max":721,"o":"m 392 300 q 406 343 399 324 q 424 392 413 363 l 514 619 q 532 750 544 696 l 721 750 q 701 722 710 736 q 681 690 692 708 q 659 645 671 671 q 632 585 647 619 l 367 -17 l 111 575 q 83 638 96 611 q 58 684 69 664 q 33 719 46 704 q 7 750 21 735 l 256 750 q 251 694 249 726 q 269 622 254 663 l 358 390 q 376 342 369 361 q 389 300 382 324 l 392 300 z "},"w":{"ha":1067,"x_min":7,"x_max":1053,"o":"m 749 326 l 751 326 q 764 371 758 353 q 782 421 769 389 l 854 618 q 868 750 882 694 l 1053 750 q 1026 706 1038 725 q 1006 668 1015 686 q 989 629 997 650 q 969 582 981 608 l 728 -18 l 533 468 l 531 468 l 336 -18 l 110 572 q 84 633 96 607 q 60 680 72 660 q 35 717 49 700 q 7 749 22 733 l 250 749 q 244 694 242 724 q 261 621 246 665 l 328 425 q 344 374 339 393 q 357 328 350 354 l 360 328 q 375 375 367 354 q 394 426 383 396 l 467 617 q 483 697 486 667 q 456 750 479 726 l 653 750 q 633 697 633 725 q 649 621 632 669 l 721 419 q 737 369 732 388 q 749 326 742 351 z "},"x":{"ha":794,"x_min":14,"x_max":788,"o":"m 414 496 q 474 583 438 533 l 535 664 q 553 750 564 701 l 775 750 q 748 733 760 742 q 725 715 736 725 q 702 690 714 704 q 675 656 690 675 l 482 403 l 679 119 q 710 76 697 94 q 736 45 724 58 q 760 21 749 32 q 788 0 772 10 l 532 0 q 531 41 536 19 q 507 90 526 63 l 436 192 q 403 241 414 224 q 383 278 393 258 l 379 278 q 357 242 368 258 q 322 193 346 225 l 256 106 q 225 51 232 75 q 222 0 218 26 l 14 0 q 67 51 43 26 q 114 108 90 76 l 313 369 l 111 656 q 88 686 99 674 q 67 709 78 699 q 44 729 57 719 q 14 750 32 739 l 267 750 q 270 710 264 728 q 293 669 276 693 l 351 585 q 383 538 368 561 q 410 496 399 515 l 414 496 z "},"y":{"ha":750,"x_min":7,"x_max":736,"o":"m 403 279 l 529 603 q 549 685 544 643 q 547 750 553 726 l 736 750 q 687 676 707 714 q 644 582 667 638 l 367 -117 q 342 -224 342 -179 q 369 -306 342 -269 l 101 -306 l 310 86 l 114 574 q 65 674 89 635 q 7 750 40 714 l 256 750 q 271 621 242 700 l 365 376 q 384 326 376 350 q 399 279 392 303 l 403 279 z "},"z":{"ha":715,"x_min":35,"x_max":681,"o":"m 572 0 l 35 0 l 410 636 l 201 636 q 118 631 144 636 q 64 610 92 626 l 64 764 q 182 750 106 750 l 667 750 l 290 114 l 565 114 q 633 119 607 114 q 681 136 660 125 l 681 -17 q 641 -3 663 -7 q 572 0 619 0 z "},"{":{"ha":507,"x_min":42,"x_max":493,"o":"m 157 -96 q 169 42 157 -24 q 182 178 182 107 q 146 294 182 239 q 42 372 110 349 l 42 406 q 144 483 113 429 q 176 600 176 538 q 167 737 176 672 q 157 874 157 801 q 186 983 157 933 q 263 1070 215 1033 q 370 1128 310 1107 q 493 1153 431 1150 l 493 1111 q 428 1078 456 1101 q 381 1023 400 1054 q 353 956 363 992 q 344 888 344 921 l 344 653 q 296 492 344 554 q 171 389 247 429 q 299 285 247 347 q 350 125 350 224 q 347 8 350 63 q 343 -110 343 -47 q 352 -178 343 -143 q 380 -245 361 -214 q 427 -300 399 -276 q 493 -333 456 -324 l 493 -375 q 370 -351 431 -372 q 263 -293 310 -329 q 186 -207 215 -257 q 157 -96 157 -157 z "},"|":{"ha":421,"x_min":139,"x_max":282,"o":"m 139 -271 l 139 1210 l 282 1210 l 282 -271 l 139 -271 z "},"}":{"ha":507,"x_min":14,"x_max":465,"o":"m 325 178 q 338 42 325 107 q 351 -96 351 -24 q 322 -207 351 -157 q 245 -293 293 -257 q 137 -351 197 -329 q 14 -375 76 -372 l 14 -333 q 80 -300 51 -324 q 127 -245 108 -276 q 155 -178 146 -214 q 164 -110 164 -143 q 161 8 164 -47 q 158 125 158 63 q 172 215 158 175 q 210 286 186 254 q 266 343 233 318 q 336 389 299 368 q 211 492 258 429 q 164 653 164 554 q 163 770 164 715 q 163 888 163 825 q 153 956 163 921 q 126 1023 144 992 q 80 1078 108 1054 q 14 1111 51 1101 l 14 1153 q 137 1128 76 1150 q 245 1070 197 1107 q 322 983 293 1033 q 351 874 351 933 q 341 737 351 801 q 331 600 331 672 q 363 483 331 538 q 465 406 394 429 l 465 372 q 361 294 397 349 q 325 178 325 239 z "},"~":{"ha":954,"x_min":35,"x_max":919,"o":"m 654 392 q 548 408 597 392 q 455 443 499 424 q 370 478 411 463 q 289 494 329 494 q 235 488 260 494 q 190 469 211 481 q 148 442 168 457 q 106 413 128 428 l 35 497 q 153 586 88 553 q 303 619 219 619 q 404 603 356 619 q 498 569 453 588 q 585 535 543 550 q 668 519 628 519 q 768 547 726 519 q 850 610 810 574 l 919 507 q 799 424 861 456 q 654 392 738 392 z "}," ":{"ha":438,"x_min":0,"x_max":0,"o":""},"¡":{"ha":413,"x_min":69,"x_max":343,"o":"m 179 761 l 206 761 l 282 207 q 290 167 286 183 q 301 140 294 151 q 317 121 307 129 q 343 103 328 113 l 69 -28 l 179 761 m 194 1071 q 269 1039 239 1071 q 300 963 300 1007 q 269 885 300 918 q 194 853 239 853 q 120 885 150 853 q 90 963 90 918 q 120 1039 90 1007 q 194 1071 150 1071 z "},"¢":{"ha":633,"x_min":56,"x_max":578,"o":"m 342 431 l 342 942 q 248 856 286 922 q 210 681 210 790 q 247 513 210 575 q 342 431 285 450 m 342 1211 l 410 1211 l 410 1072 q 565 1013 497 1064 l 565 843 q 495 920 532 896 q 410 949 458 944 l 410 421 q 501 449 463 424 q 578 529 540 475 l 578 354 q 505 313 547 329 q 410 294 463 297 l 410 151 l 342 151 l 342 297 q 133 410 211 313 q 56 681 56 507 q 78 835 56 765 q 138 955 100 904 q 228 1035 176 1006 q 342 1072 281 1065 l 342 1211 z "},"£":{"ha":708,"x_min":56,"x_max":653,"o":"m 307 147 l 322 147 q 388 141 354 147 q 454 135 422 135 q 544 155 494 135 q 653 229 594 175 l 606 21 q 535 -9 572 0 q 451 -18 497 -18 q 426 -17 439 -18 q 397 -12 413 -15 q 339 0 369 -8 q 281 11 310 7 q 225 15 253 15 q 150 6 189 15 q 56 -22 111 -3 l 56 86 q 183 190 138 121 q 228 340 228 260 q 220 415 228 381 q 199 489 213 450 l 74 489 l 74 618 l 149 618 q 116 724 132 667 q 100 831 100 782 q 122 934 100 889 q 178 1010 143 979 q 261 1056 214 1040 q 360 1072 308 1072 q 459 1060 407 1072 q 558 1013 511 1049 l 558 821 q 382 942 496 942 q 298 913 326 942 q 269 842 269 885 q 276 787 269 817 q 293 725 282 757 q 313 669 303 697 q 332 618 322 642 l 500 618 l 500 489 l 376 489 q 390 423 386 456 q 394 361 394 390 q 372 245 394 301 q 307 147 349 189 z "},"¤":{"ha":1061,"x_min":28,"x_max":992,"o":"m 713 465 l 642 322 l 374 322 q 498 169 418 224 q 671 115 578 115 q 856 155 782 115 q 990 275 931 194 l 992 81 q 855 10 933 35 q 683 -15 776 -15 q 525 6 604 -15 q 376 69 446 26 q 251 174 307 111 q 163 322 194 238 l 140 322 q 84 319 117 322 q 28 313 51 315 l 103 458 l 131 458 q 126 529 126 492 q 126 548 126 539 q 128 567 126 557 q 77 563 104 565 q 29 557 50 560 l 103 703 l 156 703 q 239 855 185 786 q 363 972 293 924 q 515 1046 433 1019 q 681 1072 596 1072 q 772 1068 731 1072 q 849 1056 814 1064 q 916 1034 885 1047 q 978 1003 947 1021 l 901 850 q 803 924 854 903 q 674 944 751 944 q 585 928 631 944 q 496 882 539 913 q 417 806 453 851 q 360 703 382 761 l 746 703 q 790 703 768 703 q 833 710 811 704 l 763 567 l 332 567 q 331 550 331 558 q 331 533 331 542 q 336 458 331 490 l 625 458 q 669 459 647 458 q 713 465 690 460 z "},"¥":{"ha":881,"x_min":21,"x_max":860,"o":"m 860 1054 q 829 1018 842 1036 q 808 985 818 1003 q 788 950 797 968 l 593 604 l 710 604 q 753 605 732 604 q 797 611 775 606 l 739 496 l 533 496 l 529 488 l 529 360 l 710 360 q 753 360 732 360 q 797 367 775 361 l 739 251 l 529 251 l 529 96 q 553 0 529 39 l 371 0 q 390 47 385 22 q 397 100 396 72 l 397 251 l 239 251 q 183 248 215 251 q 126 242 150 244 l 186 360 l 397 360 l 397 463 l 376 496 l 239 496 q 183 492 215 496 q 126 486 150 489 l 186 604 l 313 604 l 99 963 q 63 1011 83 986 q 21 1056 43 1036 l 235 1056 q 238 1002 232 1025 q 254 960 243 979 l 383 743 q 416 687 401 711 q 441 643 431 663 q 460 608 451 624 q 475 576 468 592 l 479 576 q 494 607 486 592 q 512 642 501 622 q 535 686 522 661 q 567 744 549 711 l 690 969 q 703 1008 699 985 q 706 1054 708 1031 l 860 1054 z "},"¦":{"ha":407,"x_min":139,"x_max":268,"o":"m 139 561 l 139 1210 l 268 1210 l 268 561 l 139 561 m 139 -271 l 139 379 l 268 379 l 268 -271 l 139 -271 z "},"§":{"ha":672,"x_min":83,"x_max":589,"o":"m 304 -333 q 192 -322 246 -333 q 90 -282 138 -310 l 89 -75 q 181 -174 128 -142 q 292 -207 233 -207 q 346 -197 319 -207 q 392 -171 372 -187 q 424 -131 413 -154 q 436 -79 436 -107 q 363 60 436 8 l 211 168 q 117 270 150 211 q 83 417 83 329 q 101 521 83 469 q 149 613 118 572 q 101 688 118 646 q 83 800 83 731 q 104 908 83 858 q 160 994 125 958 q 244 1051 196 1031 q 346 1072 292 1072 q 458 1057 404 1072 q 542 1022 513 1042 l 542 849 q 466 922 508 897 q 363 946 424 946 q 272 913 306 946 q 238 828 238 881 q 244 785 238 803 q 263 751 251 767 q 276 737 269 744 q 292 721 283 729 q 311 704 301 713 q 332 688 321 696 l 463 582 q 558 465 528 529 q 589 313 589 400 q 574 222 589 271 q 524 131 560 172 q 573 48 557 90 q 589 -57 589 6 q 576 -146 589 -97 q 530 -236 563 -194 q 442 -306 497 -278 q 304 -333 388 -333 m 363 438 l 257 521 q 238 444 238 486 q 263 365 238 396 q 332 297 288 333 l 421 225 q 438 290 438 251 q 421 367 438 331 q 363 438 404 404 z "},"¨":{"ha":747,"x_min":151,"x_max":593,"o":"m 593 957 q 569 889 593 917 q 510 861 546 861 q 449 889 474 861 q 424 957 424 917 q 449 1023 424 996 q 510 1050 474 1050 q 569 1022 546 1050 q 593 957 593 994 m 322 957 q 297 889 322 917 q 238 861 272 861 q 176 889 201 861 q 151 957 151 917 q 176 1023 151 996 q 238 1050 201 1050 q 297 1022 272 1050 q 322 957 322 994 z "},"©":{"ha":1229,"x_min":69,"x_max":1160,"o":"m 615 -18 q 403 25 503 -18 q 229 142 303 68 q 113 315 156 215 q 69 528 69 415 q 113 740 69 640 q 229 913 156 839 q 403 1029 303 986 q 615 1072 503 1072 q 827 1029 728 1072 q 1000 913 926 986 q 1117 740 1074 839 q 1160 528 1160 640 q 1117 315 1160 415 q 1000 142 1074 215 q 827 25 926 68 q 615 -18 728 -18 m 615 996 q 435 959 518 996 q 290 858 351 922 q 193 710 228 794 q 158 528 158 625 q 193 345 158 431 q 290 196 228 260 q 435 95 351 132 q 615 58 518 58 q 796 95 713 58 q 940 196 879 132 q 1036 345 1001 260 q 1071 528 1071 431 q 1036 710 1071 625 q 940 858 1001 794 q 796 959 879 922 q 615 996 713 996 m 636 144 q 492 169 557 144 q 381 242 426 194 q 309 361 335 290 q 283 524 283 432 q 310 684 283 613 q 383 806 338 756 q 491 882 429 856 q 624 908 553 908 q 731 894 682 908 q 822 849 779 881 l 822 683 q 741 765 783 742 q 638 788 699 788 q 565 770 600 788 q 505 719 531 753 q 463 637 479 686 q 447 524 447 588 q 463 413 447 460 q 506 333 479 365 q 569 285 533 301 q 644 269 604 269 q 750 294 707 269 q 836 376 793 318 l 836 204 q 751 160 800 176 q 636 144 703 144 z "},"ª":{"ha":408,"x_min":35,"x_max":374,"o":"m 260 931 q 242 977 260 965 q 203 989 225 989 q 133 973 165 989 q 72 921 101 957 l 88 1025 q 148 1052 118 1044 q 210 1060 178 1060 q 315 1026 275 1060 q 354 921 354 992 l 354 742 q 358 706 354 718 q 374 678 361 693 l 258 678 l 258 694 q 169 671 225 671 q 124 678 149 671 q 81 699 100 685 q 48 736 61 714 q 35 788 35 758 q 66 863 35 838 q 136 900 97 888 q 174 910 156 907 q 213 918 193 914 q 238 924 226 921 q 260 931 250 926 m 258 856 q 220 847 240 851 q 181 836 200 843 q 144 817 157 828 q 132 788 132 806 q 147 758 132 769 q 189 746 161 746 q 258 775 231 746 l 258 856 z "},"«":{"ha":571,"x_min":56,"x_max":515,"o":"m 515 99 l 415 99 l 285 318 l 415 542 l 515 542 l 433 318 l 515 99 m 286 99 l 186 99 l 56 318 l 186 542 l 286 542 l 204 318 l 286 99 z "},"¬":{"ha":771,"x_min":69,"x_max":701,"o":"m 557 250 l 557 540 l 69 540 l 69 681 l 701 681 l 701 250 l 557 250 z "},"­":{"ha":576,"x_min":35,"x_max":535,"o":"m 535 525 l 415 368 l 147 368 q 35 358 82 368 l 150 518 l 447 518 q 491 519 469 518 q 535 525 513 519 z "},"®":{"ha":1229,"x_min":69,"x_max":1160,"o":"m 901 168 l 704 168 q 713 208 711 193 q 714 235 714 222 q 699 319 714 278 q 660 393 685 360 q 602 450 635 426 q 532 482 569 474 l 532 288 q 533 244 532 263 q 536 213 533 226 q 544 190 539 200 q 557 168 549 179 l 385 168 q 406 208 400 186 q 411 281 411 229 l 410 829 q 404 878 410 861 q 385 907 399 894 l 599 907 q 687 890 646 907 q 757 844 728 874 q 803 778 786 815 q 819 699 819 740 q 807 635 819 665 q 773 581 794 606 q 722 537 751 556 q 660 508 693 518 l 660 506 q 771 410 726 468 q 846 272 815 351 q 901 168 865 222 m 706 697 q 668 801 706 761 q 564 840 631 840 l 532 840 l 532 554 l 565 556 q 668 597 631 558 q 706 697 706 635 m 615 -18 q 403 25 503 -18 q 229 142 303 68 q 113 315 156 215 q 69 528 69 415 q 113 740 69 640 q 229 913 156 839 q 403 1029 303 986 q 615 1072 503 1072 q 827 1029 728 1072 q 1000 913 926 986 q 1117 740 1074 839 q 1160 528 1160 640 q 1117 315 1160 415 q 1000 142 1074 215 q 827 25 926 68 q 615 -18 728 -18 m 615 996 q 435 959 518 996 q 290 858 351 922 q 193 710 228 794 q 158 528 158 625 q 193 345 158 431 q 290 196 228 260 q 435 95 351 132 q 615 58 518 58 q 796 95 713 58 q 940 196 879 132 q 1036 345 1001 260 q 1071 528 1071 431 q 1036 710 1071 625 q 940 858 1001 794 q 796 959 879 922 q 615 996 713 996 z "},"¯":{"ha":778,"x_min":160,"x_max":589,"o":"m 589 861 l 160 861 l 160 981 l 589 981 l 589 861 z "},"°":{"ha":460,"x_min":56,"x_max":404,"o":"m 231 708 q 163 723 194 708 q 107 763 131 738 q 69 822 83 788 q 56 893 56 856 q 69 966 56 932 q 107 1025 83 1000 q 163 1065 131 1050 q 231 1079 194 1079 q 299 1065 267 1079 q 354 1024 331 1050 q 391 965 378 999 q 404 893 404 931 q 391 822 404 856 q 354 763 378 789 q 299 723 331 738 q 231 708 267 708 m 231 979 q 177 955 200 979 q 154 894 154 931 q 177 833 154 857 q 231 808 200 808 q 284 833 261 808 q 307 894 307 857 q 284 955 307 931 q 231 979 261 979 z "},"±":{"ha":851,"x_min":69,"x_max":782,"o":"m 343 978 l 500 899 l 500 678 l 694 678 q 738 678 717 678 q 782 685 760 679 l 703 528 l 500 528 l 500 338 q 501 277 500 306 q 508 225 503 249 l 350 306 l 350 528 l 182 528 q 69 518 117 528 l 150 678 l 350 678 l 350 892 q 349 935 350 914 q 343 978 347 957 m 782 157 l 703 0 l 183 0 q 69 -10 117 0 l 151 150 l 694 150 q 739 151 718 150 q 782 157 760 151 z "},"²":{"ha":593,"x_min":63,"x_max":517,"o":"m 494 414 l 63 414 l 217 576 q 290 663 263 624 q 333 737 318 703 q 353 800 349 771 q 358 857 358 829 q 348 903 358 882 q 320 940 338 924 q 280 965 303 956 q 232 976 257 975 q 159 960 190 978 q 88 894 128 943 l 69 914 q 158 1024 101 978 q 300 1071 215 1071 q 442 1017 386 1071 q 499 872 499 964 q 474 778 499 828 q 414 679 450 728 q 376 630 396 654 q 336 582 357 606 q 303 545 319 563 q 269 508 286 528 l 379 508 q 454 517 424 508 q 517 546 485 526 l 494 414 z "},"³":{"ha":606,"x_min":63,"x_max":529,"o":"m 408 792 q 496 724 463 769 q 529 618 529 679 q 510 537 529 574 q 458 474 492 500 q 376 433 424 447 q 272 418 329 418 q 160 440 215 418 q 63 504 106 461 q 74 519 71 515 q 78 526 76 524 q 146 495 114 506 q 214 485 178 485 q 283 494 250 485 q 340 521 315 503 q 380 566 365 539 q 394 628 394 593 q 386 676 394 651 q 359 719 378 700 q 310 753 340 739 q 235 774 279 768 l 235 796 q 322 834 290 803 q 354 904 354 865 q 322 970 354 943 q 244 997 289 997 q 182 990 208 997 q 121 954 156 982 l 103 975 q 193 1048 143 1024 q 311 1072 243 1072 q 381 1060 349 1072 q 439 1028 414 1049 q 478 982 464 1008 q 493 925 493 956 q 408 792 493 839 z "},"´":{"ha":747,"x_min":304,"x_max":579,"o":"m 400 847 l 304 847 l 388 1056 l 579 1056 l 400 847 z "},"µ":{"ha":789,"x_min":56,"x_max":733,"o":"m 538 0 l 538 35 q 360 -24 460 -24 q 294 -17 328 -24 q 235 4 261 -10 l 235 -278 l 79 -278 l 79 319 l 79 633 q 74 701 79 676 q 56 750 68 726 l 233 750 l 233 326 q 276 154 233 206 q 388 103 319 103 q 463 126 422 103 q 538 196 504 149 l 538 601 q 536 655 538 633 q 532 692 535 676 q 524 722 529 708 q 510 750 518 735 l 693 750 l 693 128 q 733 0 693 46 l 538 0 z "},"¶":{"ha":822,"x_min":69,"x_max":753,"o":"m 685 958 l 685 -333 l 583 -333 l 583 958 l 483 958 l 483 -333 l 382 -333 l 382 308 q 253 348 311 314 q 154 434 194 382 q 92 551 114 486 q 69 682 69 615 q 94 820 69 753 q 165 940 119 888 q 274 1024 211 992 q 414 1056 338 1056 l 753 1056 l 753 958 l 685 958 z "},"·":{"ha":304,"x_min":56,"x_max":249,"o":"m 56 444 q 83 517 56 488 q 151 547 111 547 q 220 517 192 547 q 249 444 249 488 q 220 372 249 403 q 151 342 192 342 q 83 372 111 342 q 56 444 56 403 z "},"¸":{"ha":675,"x_min":318,"x_max":533,"o":"m 417 -306 q 380 -302 394 -306 q 346 -289 365 -299 l 321 -196 q 404 -228 356 -228 q 439 -213 425 -228 q 453 -179 453 -199 q 438 -144 453 -158 q 407 -131 424 -131 q 385 -135 394 -131 q 365 -150 376 -139 l 318 -137 l 346 18 l 425 18 l 408 -58 l 419 -58 q 501 -95 468 -58 q 533 -181 533 -132 q 523 -234 533 -211 q 496 -273 513 -257 q 458 -297 479 -289 q 417 -306 438 -306 z "},"¹":{"ha":363,"x_min":63,"x_max":258,"o":"m 93 413 q 118 489 118 444 l 118 976 q 106 1019 118 1007 q 63 1035 94 1032 l 63 1056 l 236 1056 l 236 489 q 242 447 236 464 q 258 411 247 431 l 93 413 z "},"º":{"ha":442,"x_min":35,"x_max":407,"o":"m 221 669 q 87 717 139 669 q 35 863 35 765 q 86 1004 35 950 q 221 1058 138 1058 q 295 1044 261 1058 q 354 1004 329 1031 q 393 942 379 978 q 407 863 407 906 q 356 717 407 765 q 221 669 304 669 m 221 985 q 156 954 181 985 q 132 863 132 924 q 158 774 132 803 q 221 744 185 744 q 283 774 257 744 q 310 863 310 803 q 285 954 310 924 q 221 985 261 985 z "},"»":{"ha":571,"x_min":56,"x_max":515,"o":"m 367 318 l 285 542 l 385 542 l 515 318 l 385 99 l 285 99 l 367 318 m 138 318 l 56 542 l 156 542 l 286 318 l 156 99 l 56 99 l 138 318 z "},"¼":{"ha":1168,"x_min":63,"x_max":1106,"o":"m 700 1054 l 256 0 l 142 0 l 588 1054 l 700 1054 m 258 411 l 93 413 q 118 489 118 444 l 118 976 q 106 1019 118 1007 q 63 1035 94 1032 l 63 1056 l 236 1056 l 236 489 q 242 447 236 464 q 258 411 247 431 m 688 297 l 863 297 l 861 558 q 858 599 861 582 q 842 636 854 617 l 999 636 q 983 597 986 613 q 981 556 981 582 l 979 297 l 1010 297 q 1058 301 1042 297 q 1089 317 1074 306 l 1106 186 q 1060 203 1076 200 q 1011 207 1043 207 l 979 207 l 979 71 q 983 33 979 47 q 1000 0 988 19 l 839 0 q 856 33 851 19 q 860 72 860 47 l 860 207 l 658 207 q 599 206 632 207 q 533 197 565 204 q 622 321 597 261 q 646 421 646 381 q 626 522 646 469 q 560 638 606 575 l 708 638 q 747 563 736 601 q 758 481 758 525 q 739 385 758 433 q 688 297 719 338 z "},"½":{"ha":1047,"x_min":63,"x_max":971,"o":"m 950 -1 l 517 -1 l 672 161 q 744 248 717 208 q 788 322 772 288 q 808 385 803 356 q 814 442 814 414 q 776 524 814 490 q 686 561 739 558 q 614 544 646 563 q 543 479 582 526 l 524 499 q 613 609 556 563 q 754 656 669 656 q 833 642 797 656 q 897 601 869 628 q 939 539 924 575 q 954 457 954 503 q 930 363 954 413 q 869 264 906 313 q 831 215 851 239 q 790 167 811 190 q 758 130 775 147 q 724 93 740 113 l 835 93 q 908 102 878 93 q 971 131 939 111 l 950 -1 m 256 0 l 142 0 l 588 1054 l 700 1054 l 256 0 m 93 413 q 118 489 118 444 l 118 976 q 106 1019 118 1007 q 63 1035 94 1032 l 63 1056 l 236 1056 l 236 489 q 242 447 236 464 q 258 411 247 431 l 93 413 z "},"¾":{"ha":1403,"x_min":63,"x_max":1340,"o":"m 935 1054 l 490 0 l 376 0 l 822 1054 l 935 1054 m 408 792 q 496 724 463 769 q 529 618 529 679 q 510 537 529 574 q 458 474 492 500 q 376 433 424 447 q 272 418 329 418 q 160 440 215 418 q 63 504 106 461 q 74 519 71 515 q 78 526 76 524 q 146 495 114 506 q 214 485 178 485 q 283 494 250 485 q 340 521 315 503 q 380 566 365 539 q 394 628 394 593 q 386 676 394 651 q 359 719 378 700 q 310 753 340 739 q 235 774 279 768 l 235 796 q 322 834 290 803 q 354 904 354 865 q 322 970 354 943 q 244 997 289 997 q 182 990 208 997 q 121 954 156 982 l 103 975 q 193 1048 143 1024 q 311 1072 243 1072 q 381 1060 349 1072 q 439 1028 414 1049 q 478 982 464 1008 q 493 925 493 956 q 408 792 493 839 m 922 297 l 1097 297 l 1096 558 q 1092 599 1096 582 q 1076 636 1089 617 l 1233 636 q 1218 597 1221 613 q 1215 556 1215 582 l 1214 297 l 1244 297 q 1292 301 1276 297 q 1324 317 1308 306 l 1340 186 q 1294 203 1311 200 q 1246 207 1278 207 l 1214 207 l 1214 71 q 1218 33 1214 47 q 1235 0 1222 19 l 1074 0 q 1090 33 1086 19 q 1094 72 1094 47 l 1094 207 l 893 207 q 833 206 867 207 q 768 197 800 204 q 856 321 832 261 q 881 421 881 381 q 860 522 881 469 q 794 638 840 575 l 943 638 q 982 563 971 601 q 993 481 993 525 q 974 385 993 433 q 922 297 954 338 z "},"¿":{"ha":743,"x_min":69,"x_max":674,"o":"m 146 454 q 184 494 164 475 q 225 533 204 514 q 267 570 246 553 q 308 606 289 588 q 378 672 353 647 q 403 717 403 696 q 397 740 403 728 q 364 776 390 751 l 383 803 q 413 783 399 793 q 439 764 428 774 q 470 729 458 749 q 482 690 482 710 q 473 649 482 671 q 446 607 464 626 q 405 559 424 581 q 367 515 386 538 q 317 453 338 481 q 285 400 297 425 q 267 351 272 375 q 261 299 261 326 q 276 226 261 260 q 315 168 290 193 q 374 129 340 143 q 444 115 407 115 q 547 139 497 115 q 650 225 597 163 l 674 206 q 630 122 657 163 q 566 51 603 82 q 481 3 529 21 q 372 -15 432 -15 q 256 6 311 -15 q 160 65 201 28 q 94 153 118 103 q 69 260 69 203 q 90 365 69 317 q 146 454 110 413 m 376 1072 q 417 1063 399 1072 q 451 1040 436 1054 q 474 1005 465 1025 q 482 963 482 985 q 474 920 482 940 q 451 885 465 900 q 417 862 436 871 q 376 853 399 853 q 335 862 354 853 q 302 885 317 871 q 279 920 288 900 q 271 963 271 940 q 279 1005 271 985 q 302 1040 288 1025 q 335 1063 317 1054 q 376 1072 354 1072 z "},"À":{"ha":949,"x_min":14,"x_max":935,"o":"m 935 0 l 682 0 q 690 47 690 24 q 679 100 690 69 l 635 215 l 271 215 l 222 86 q 210 39 211 58 q 215 0 210 19 l 14 0 q 65 53 44 19 q 100 125 85 86 l 476 1072 l 858 118 q 891 52 874 79 q 935 0 908 25 m 583 346 l 483 601 q 474 627 479 611 q 464 660 468 643 q 456 691 460 676 q 453 715 453 706 l 450 715 q 447 690 450 706 q 438 658 443 675 q 426 626 432 642 q 417 599 421 610 l 321 346 l 583 346 m 428 1156 l 249 1364 l 440 1364 l 524 1156 l 428 1156 z "},"Á":{"ha":949,"x_min":14,"x_max":935,"o":"m 935 0 l 682 0 q 690 47 690 24 q 679 100 690 69 l 635 215 l 271 215 l 222 86 q 210 39 211 58 q 215 0 210 19 l 14 0 q 65 53 44 19 q 100 125 85 86 l 476 1072 l 858 118 q 891 52 874 79 q 935 0 908 25 m 583 346 l 483 601 q 474 627 479 611 q 464 660 468 643 q 456 691 460 676 q 453 715 453 706 l 450 715 q 447 690 450 706 q 438 658 443 675 q 426 626 432 642 q 417 599 421 610 l 321 346 l 583 346 m 513 1156 l 417 1156 l 500 1364 l 692 1364 l 513 1156 z "},"Â":{"ha":949,"x_min":14,"x_max":935,"o":"m 935 0 l 682 0 q 690 47 690 24 q 679 100 690 69 l 635 215 l 271 215 l 222 86 q 210 39 211 58 q 215 0 210 19 l 14 0 q 65 53 44 19 q 100 125 85 86 l 476 1072 l 858 118 q 891 52 874 79 q 935 0 908 25 m 583 346 l 483 601 q 474 627 479 611 q 464 660 468 643 q 456 691 460 676 q 453 715 453 706 l 450 715 q 447 690 450 706 q 438 658 443 675 q 426 626 432 642 q 417 599 421 610 l 321 346 l 583 346 m 399 1364 l 558 1364 l 697 1169 l 592 1169 l 478 1278 l 363 1169 l 256 1169 l 399 1364 z "},"Ã":{"ha":949,"x_min":14,"x_max":935,"o":"m 935 0 l 682 0 q 690 47 690 24 q 679 100 690 69 l 635 215 l 271 215 l 222 86 q 210 39 211 58 q 215 0 210 19 l 14 0 q 65 53 44 19 q 100 125 85 86 l 476 1072 l 858 118 q 891 52 874 79 q 935 0 908 25 m 583 346 l 483 601 q 474 627 479 611 q 464 660 468 643 q 456 691 460 676 q 453 715 453 706 l 450 715 q 447 690 450 706 q 438 658 443 675 q 426 626 432 642 q 417 599 421 610 l 321 346 l 583 346 m 578 1164 q 518 1175 546 1164 q 465 1199 490 1186 q 441 1211 453 1206 q 417 1221 429 1217 q 374 1231 396 1231 q 310 1168 324 1231 l 231 1168 q 242 1233 232 1200 q 268 1293 251 1267 q 310 1336 285 1319 q 368 1353 335 1353 q 430 1342 400 1353 q 485 1318 460 1331 q 510 1306 497 1311 q 533 1296 522 1300 q 572 1286 554 1286 q 617 1301 600 1286 q 642 1349 635 1315 l 721 1349 q 709 1283 718 1315 q 683 1224 700 1250 q 640 1181 665 1197 q 578 1164 614 1164 z "},"Ä":{"ha":949,"x_min":14,"x_max":935,"o":"m 696 1261 q 672 1194 696 1222 q 611 1167 647 1167 q 551 1194 576 1167 q 526 1261 526 1222 q 551 1328 526 1301 q 611 1354 576 1354 q 672 1327 647 1354 q 696 1261 696 1300 m 424 1261 q 399 1194 424 1222 q 339 1167 374 1167 q 279 1194 304 1167 q 254 1261 254 1222 q 279 1328 254 1301 q 339 1354 304 1354 q 399 1327 374 1354 q 424 1261 424 1300 m 935 0 l 682 0 q 690 47 690 24 q 679 100 690 69 l 635 215 l 271 215 l 222 86 q 210 39 211 58 q 215 0 210 19 l 14 0 q 65 53 44 19 q 100 125 85 86 l 476 1072 l 858 118 q 891 52 874 79 q 935 0 908 25 m 583 346 l 483 601 q 474 627 479 611 q 464 660 468 643 q 456 691 460 676 q 453 715 453 706 l 450 715 q 447 690 450 706 q 438 658 443 675 q 426 626 432 642 q 417 599 421 610 l 321 346 l 583 346 z "},"Å":{"ha":949,"x_min":14,"x_max":935,"o":"m 474 1143 q 424 1153 447 1143 q 382 1183 400 1164 q 353 1227 364 1201 q 343 1282 343 1253 q 353 1337 343 1311 q 382 1381 364 1363 q 424 1411 400 1400 q 474 1422 447 1422 q 524 1411 500 1422 q 565 1381 547 1400 q 594 1337 583 1363 q 604 1282 604 1311 q 594 1227 604 1253 q 565 1183 583 1201 q 524 1153 547 1164 q 474 1143 500 1143 m 474 1343 q 437 1326 453 1343 q 421 1282 421 1310 q 437 1239 421 1256 q 474 1222 453 1222 q 510 1239 494 1222 q 526 1282 526 1256 q 510 1326 526 1310 q 474 1343 494 1343 m 935 0 l 682 0 q 690 47 690 24 q 679 100 690 69 l 635 215 l 271 215 l 222 86 q 210 39 211 58 q 215 0 210 19 l 14 0 q 65 53 44 19 q 100 125 85 86 l 476 1072 l 858 118 q 891 52 874 79 q 935 0 908 25 m 583 346 l 483 601 q 474 627 479 611 q 464 660 468 643 q 456 691 460 676 q 453 715 453 706 l 450 715 q 447 690 450 706 q 438 658 443 675 q 426 626 432 642 q 417 599 421 610 l 321 346 l 583 346 z "},"Æ":{"ha":1290,"x_min":14,"x_max":1235,"o":"m 1225 0 l 879 0 l 658 0 q 675 60 672 29 q 669 136 678 92 l 657 215 l 310 215 l 238 83 q 221 42 226 61 q 215 0 215 24 l 14 0 q 91 83 58 42 q 144 163 124 124 l 485 790 q 514 854 500 818 q 528 933 528 890 q 490 1056 528 997 l 900 1056 q 970 1058 946 1056 q 1014 1068 994 1060 l 1033 892 q 978 913 1007 907 q 910 919 949 919 l 692 919 l 753 621 l 931 621 q 992 626 968 621 q 1040 646 1015 632 l 1072 464 q 1013 483 1038 478 q 947 488 989 488 l 781 488 l 849 153 q 861 145 856 147 q 874 140 867 143 q 905 135 882 138 q 947 133 928 133 l 996 133 l 1060 133 q 1163 147 1122 133 q 1235 189 1204 160 l 1225 0 m 571 714 l 568 715 q 561 688 565 703 q 547 657 557 674 l 381 344 l 632 344 l 590 581 l 576 663 q 572 688 574 674 q 571 714 571 703 z "},"Ç":{"ha":990,"x_min":69,"x_max":935,"o":"m 619 -306 q 583 -302 597 -306 q 549 -289 568 -299 l 524 -196 q 607 -228 558 -228 q 642 -213 628 -228 q 656 -179 656 -199 q 641 -144 656 -158 q 610 -131 626 -131 q 588 -135 597 -131 q 568 -150 579 -139 l 521 -137 l 543 -10 q 367 42 453 3 q 216 149 282 82 q 110 311 150 217 q 69 529 69 406 q 117 749 69 649 q 242 920 164 849 q 420 1032 321 992 q 624 1072 519 1072 q 713 1069 674 1072 q 786 1058 753 1065 q 848 1039 819 1050 q 906 1011 876 1028 l 906 810 q 834 877 869 851 q 763 917 799 903 q 692 937 728 932 q 617 942 656 942 q 499 915 560 942 q 389 837 439 889 q 306 709 339 785 q 274 533 274 633 q 301 360 274 438 q 376 228 329 283 q 484 144 422 174 q 614 115 546 115 q 933 274 817 115 l 935 81 q 798 10 876 35 q 626 -15 719 -15 l 621 -15 l 611 -58 l 622 -58 q 703 -95 671 -58 q 736 -181 736 -132 q 726 -234 736 -211 q 699 -273 715 -257 q 661 -297 682 -289 q 619 -306 640 -306 z "},"È":{"ha":751,"x_min":69,"x_max":696,"o":"m 696 192 q 681 104 688 143 q 669 39 674 69 q 663 0 664 8 l 69 0 q 97 57 89 26 q 104 139 104 88 l 104 946 q 100 1007 104 982 q 85 1056 96 1032 l 522 1056 q 595 1058 569 1056 q 646 1068 621 1061 l 632 893 q 568 914 600 908 q 488 919 536 919 l 285 919 l 285 621 l 475 621 q 544 626 519 621 q 596 647 568 632 l 596 464 q 567 476 581 472 q 540 483 554 481 q 511 487 526 486 q 475 488 496 488 l 285 488 l 285 151 q 299 145 290 149 q 317 139 307 142 q 348 135 325 136 q 392 133 371 133 l 453 133 l 513 133 q 696 192 621 133 m 367 1156 l 188 1364 l 379 1364 l 463 1156 l 367 1156 z "},"É":{"ha":751,"x_min":69,"x_max":696,"o":"m 696 192 q 681 104 688 143 q 669 39 674 69 q 663 0 664 8 l 69 0 q 97 57 89 26 q 104 139 104 88 l 104 946 q 100 1007 104 982 q 85 1056 96 1032 l 522 1056 q 595 1058 569 1056 q 646 1068 621 1061 l 632 893 q 568 914 600 908 q 488 919 536 919 l 285 919 l 285 621 l 475 621 q 544 626 519 621 q 596 647 568 632 l 596 464 q 567 476 581 472 q 540 483 554 481 q 511 487 526 486 q 475 488 496 488 l 285 488 l 285 151 q 299 145 290 149 q 317 139 307 142 q 348 135 325 136 q 392 133 371 133 l 453 133 l 513 133 q 696 192 621 133 m 392 1156 l 296 1156 l 379 1364 l 571 1364 l 392 1156 z "},"Ê":{"ha":751,"x_min":69,"x_max":696,"o":"m 696 192 q 681 104 688 143 q 669 39 674 69 q 663 0 664 8 l 69 0 q 97 57 89 26 q 104 139 104 88 l 104 946 q 100 1007 104 982 q 85 1056 96 1032 l 522 1056 q 595 1058 569 1056 q 646 1068 621 1061 l 632 893 q 568 914 600 908 q 488 919 536 919 l 285 919 l 285 621 l 475 621 q 544 626 519 621 q 596 647 568 632 l 596 464 q 567 476 581 472 q 540 483 554 481 q 511 487 526 486 q 475 488 496 488 l 285 488 l 285 151 q 299 145 290 149 q 317 139 307 142 q 348 135 325 136 q 392 133 371 133 l 453 133 l 513 133 q 696 192 621 133 m 297 1364 l 457 1364 l 596 1169 l 490 1169 l 376 1278 l 261 1169 l 154 1169 l 297 1364 z "},"Ë":{"ha":751,"x_min":69,"x_max":696,"o":"m 696 192 q 681 104 688 143 q 669 39 674 69 q 663 0 664 8 l 69 0 q 97 57 89 26 q 104 139 104 88 l 104 946 q 100 1007 104 982 q 85 1056 96 1032 l 522 1056 q 595 1058 569 1056 q 646 1068 621 1061 l 632 893 q 568 914 600 908 q 488 919 536 919 l 285 919 l 285 621 l 475 621 q 544 626 519 621 q 596 647 568 632 l 596 464 q 567 476 581 472 q 540 483 554 481 q 511 487 526 486 q 475 488 496 488 l 285 488 l 285 151 q 299 145 290 149 q 317 139 307 142 q 348 135 325 136 q 392 133 371 133 l 453 133 l 513 133 q 696 192 621 133 m 588 1265 q 564 1197 588 1225 q 504 1169 540 1169 q 443 1197 468 1169 q 418 1265 418 1225 q 443 1331 418 1304 q 504 1358 468 1358 q 564 1331 540 1358 q 588 1265 588 1303 m 317 1265 q 292 1197 317 1225 q 232 1169 267 1169 q 171 1197 196 1169 q 146 1265 146 1225 q 171 1331 146 1304 q 232 1358 196 1358 q 292 1331 267 1358 q 317 1265 317 1303 z "},"Ì":{"ha":422,"x_min":36,"x_max":339,"o":"m 339 0 l 83 0 q 113 58 104 29 q 121 128 121 88 l 121 940 q 114 1003 121 972 q 88 1056 107 1033 l 336 1056 q 309 1001 317 1032 q 301 935 301 969 l 301 129 q 339 0 301 51 m 215 1156 l 36 1364 l 228 1364 l 311 1156 l 215 1156 z "},"Í":{"ha":422,"x_min":83,"x_max":372,"o":"m 339 0 l 83 0 q 113 58 104 29 q 121 128 121 88 l 121 940 q 114 1003 121 972 q 88 1056 107 1033 l 336 1056 q 309 1001 317 1032 q 301 935 301 969 l 301 129 q 339 0 301 51 m 193 1157 l 97 1157 l 181 1365 l 372 1365 l 193 1157 z "},"Î":{"ha":422,"x_min":-10,"x_max":431,"o":"m 339 0 l 83 0 q 113 58 104 29 q 121 128 121 88 l 121 940 q 114 1003 121 972 q 88 1056 107 1033 l 336 1056 q 309 1001 317 1032 q 301 935 301 969 l 301 129 q 339 0 301 51 m 133 1364 l 292 1364 l 431 1169 l 325 1169 l 211 1278 l 96 1169 l -10 1169 l 133 1364 z "},"Ï":{"ha":422,"x_min":-11,"x_max":431,"o":"m 339 0 l 83 0 q 113 58 104 29 q 121 128 121 88 l 121 940 q 114 1003 121 972 q 88 1056 107 1033 l 336 1056 q 309 1001 317 1032 q 301 935 301 969 l 301 129 q 339 0 301 51 m 431 1265 q 407 1197 431 1225 q 347 1169 383 1169 q 286 1197 311 1169 q 261 1265 261 1225 q 286 1331 261 1304 q 347 1358 311 1358 q 407 1331 383 1358 q 431 1265 431 1303 m 160 1265 q 135 1197 160 1225 q 75 1169 110 1169 q 14 1197 39 1169 q -11 1265 -11 1225 q 14 1331 -11 1304 q 75 1358 39 1358 q 135 1331 110 1358 q 160 1265 160 1303 z "},"Ð":{"ha":958,"x_min":0,"x_max":889,"o":"m 104 457 q 49 455 72 457 q 0 447 25 453 l 74 593 l 104 593 l 104 933 q 97 1002 104 974 q 71 1056 89 1031 l 322 1056 q 558 1017 453 1056 q 736 909 663 979 q 849 740 810 839 q 889 522 889 642 q 847 295 889 393 q 735 132 806 197 q 571 33 664 67 q 375 0 478 0 l 71 0 q 96 51 88 26 q 104 117 104 76 l 104 457 m 485 600 l 413 457 l 272 457 l 272 131 q 320 122 297 124 q 378 119 343 119 q 502 147 444 119 q 602 226 560 174 q 669 353 644 278 q 694 524 694 428 q 671 692 694 618 q 603 817 647 765 q 499 894 560 868 q 364 921 438 921 l 274 921 l 272 593 l 397 593 q 441 594 419 593 q 485 600 463 594 z "},"Ñ":{"ha":963,"x_min":69,"x_max":893,"o":"m 733 408 l 733 943 q 727 1005 733 982 q 703 1056 721 1028 l 893 1056 q 869 1003 872 1026 q 865 943 865 981 l 865 -19 l 351 619 q 312 674 332 644 q 269 740 292 703 l 265 740 l 265 122 q 273 50 265 75 q 303 0 281 25 l 96 0 q 121 53 113 28 q 129 126 129 78 l 129 904 q 116 991 129 956 q 69 1056 103 1026 l 238 1056 q 266 1017 256 1031 q 288 988 276 1003 l 642 532 q 667 499 656 514 q 688 471 678 485 q 707 442 697 457 q 729 408 717 426 l 733 408 m 583 1164 q 524 1175 551 1164 q 471 1199 496 1186 q 447 1211 458 1206 q 422 1221 435 1217 q 379 1231 401 1231 q 315 1168 329 1231 l 236 1168 q 247 1233 238 1200 q 274 1293 257 1267 q 315 1336 290 1319 q 374 1353 340 1353 q 435 1342 406 1353 q 490 1318 465 1331 q 515 1306 503 1311 q 539 1296 528 1300 q 578 1286 560 1286 q 623 1301 606 1286 q 647 1349 640 1315 l 726 1349 q 715 1283 724 1315 q 688 1224 706 1250 q 645 1181 671 1197 q 583 1164 619 1164 z "},"Ò":{"ha":1093,"x_min":69,"x_max":1024,"o":"m 547 -15 q 361 27 449 -15 q 209 142 274 69 q 107 313 144 215 q 69 522 69 411 q 107 732 69 632 q 209 908 144 832 q 361 1028 274 983 q 547 1072 449 1072 q 738 1028 650 1072 q 888 908 825 983 q 988 732 951 832 q 1024 522 1024 632 q 988 314 1024 411 q 890 143 953 217 q 739 27 826 69 q 547 -15 651 -15 m 549 942 q 441 910 492 942 q 352 822 390 878 q 292 692 314 767 q 269 529 269 617 q 292 366 269 442 q 352 235 314 290 q 441 147 390 179 q 549 115 492 115 q 660 147 610 115 q 746 235 710 179 q 802 366 782 290 q 822 529 822 442 q 804 692 822 617 q 751 822 786 767 q 665 910 715 878 q 549 942 614 942 m 515 1156 l 336 1364 l 528 1364 l 611 1156 l 515 1156 z "},"Ó":{"ha":1093,"x_min":69,"x_max":1024,"o":"m 547 -15 q 361 27 449 -15 q 209 142 274 69 q 107 313 144 215 q 69 522 69 411 q 107 732 69 632 q 209 908 144 832 q 361 1028 274 983 q 547 1072 449 1072 q 738 1028 650 1072 q 888 908 825 983 q 988 732 951 832 q 1024 522 1024 632 q 988 314 1024 411 q 890 143 953 217 q 739 27 826 69 q 547 -15 651 -15 m 549 942 q 441 910 492 942 q 352 822 390 878 q 292 692 314 767 q 269 529 269 617 q 292 366 269 442 q 352 235 314 290 q 441 147 390 179 q 549 115 492 115 q 660 147 610 115 q 746 235 710 179 q 802 366 782 290 q 822 529 822 442 q 804 692 822 617 q 751 822 786 767 q 665 910 715 878 q 549 942 614 942 m 543 1156 l 447 1156 l 531 1364 l 722 1364 l 543 1156 z "},"Ô":{"ha":1093,"x_min":69,"x_max":1024,"o":"m 547 -15 q 361 27 449 -15 q 209 142 274 69 q 107 313 144 215 q 69 522 69 411 q 107 732 69 632 q 209 908 144 832 q 361 1028 274 983 q 547 1072 449 1072 q 738 1028 650 1072 q 888 908 825 983 q 988 732 951 832 q 1024 522 1024 632 q 988 314 1024 411 q 890 143 953 217 q 739 27 826 69 q 547 -15 651 -15 m 549 942 q 441 910 492 942 q 352 822 390 878 q 292 692 314 767 q 269 529 269 617 q 292 366 269 442 q 352 235 314 290 q 441 147 390 179 q 549 115 492 115 q 660 147 610 115 q 746 235 710 179 q 802 366 782 290 q 822 529 822 442 q 804 692 822 617 q 751 822 786 767 q 665 910 715 878 q 549 942 614 942 m 469 1364 l 628 1364 l 767 1169 l 661 1169 l 547 1278 l 432 1169 l 326 1169 l 469 1364 z "},"Õ":{"ha":1093,"x_min":69,"x_max":1024,"o":"m 547 -15 q 361 27 449 -15 q 209 142 274 69 q 107 313 144 215 q 69 522 69 411 q 107 732 69 632 q 209 908 144 832 q 361 1028 274 983 q 547 1072 449 1072 q 738 1028 650 1072 q 888 908 825 983 q 988 732 951 832 q 1024 522 1024 632 q 988 314 1024 411 q 890 143 953 217 q 739 27 826 69 q 547 -15 651 -15 m 549 942 q 441 910 492 942 q 352 822 390 878 q 292 692 314 767 q 269 529 269 617 q 292 366 269 442 q 352 235 314 290 q 441 147 390 179 q 549 115 492 115 q 660 147 610 115 q 746 235 710 179 q 802 366 782 290 q 822 529 822 442 q 804 692 822 617 q 751 822 786 767 q 665 910 715 878 q 549 942 614 942 m 651 1164 q 592 1175 619 1164 q 539 1199 564 1186 q 515 1211 526 1206 q 490 1221 503 1217 q 447 1231 469 1231 q 383 1168 397 1231 l 304 1168 q 315 1233 306 1200 q 342 1293 325 1267 q 383 1336 358 1319 q 442 1353 408 1353 q 503 1342 474 1353 q 558 1318 533 1331 q 583 1306 571 1311 q 607 1296 596 1300 q 646 1286 628 1286 q 691 1301 674 1286 q 715 1349 708 1315 l 794 1349 q 783 1283 792 1315 q 756 1224 774 1250 q 713 1181 739 1197 q 651 1164 688 1164 z "},"Ö":{"ha":1093,"x_min":69,"x_max":1024,"o":"m 547 -15 q 361 27 449 -15 q 209 142 274 69 q 107 313 144 215 q 69 522 69 411 q 107 732 69 632 q 209 908 144 832 q 361 1028 274 983 q 547 1072 449 1072 q 738 1028 650 1072 q 888 908 825 983 q 988 732 951 832 q 1024 522 1024 632 q 988 314 1024 411 q 890 143 953 217 q 739 27 826 69 q 547 -15 651 -15 m 549 942 q 441 910 492 942 q 352 822 390 878 q 292 692 314 767 q 269 529 269 617 q 292 366 269 442 q 352 235 314 290 q 441 147 390 179 q 549 115 492 115 q 660 147 610 115 q 746 235 710 179 q 802 366 782 290 q 822 529 822 442 q 804 692 822 617 q 751 822 786 767 q 665 910 715 878 q 549 942 614 942 m 769 1261 q 745 1194 769 1222 q 685 1167 721 1167 q 625 1194 650 1167 q 600 1261 600 1222 q 625 1328 600 1301 q 685 1354 650 1354 q 745 1327 721 1354 q 769 1261 769 1300 m 497 1261 q 472 1194 497 1222 q 413 1167 447 1167 q 353 1194 378 1167 q 328 1261 328 1222 q 353 1328 328 1301 q 413 1354 378 1354 q 472 1327 447 1354 q 497 1261 497 1300 z "},"×":{"ha":738,"x_min":56,"x_max":682,"o":"m 568 226 l 368 413 l 264 315 q 226 276 249 300 q 179 219 204 251 l 65 326 l 263 511 l 140 625 q 107 653 125 640 q 56 686 89 667 l 169 794 l 368 610 l 492 724 q 522 756 507 739 q 558 804 538 772 l 675 697 l 474 511 l 579 413 q 682 333 613 383 l 568 226 z "},"Ø":{"ha":1093,"x_min":69,"x_max":1024,"o":"m 547 -15 q 419 4 481 -15 q 303 60 357 24 l 228 -58 l 117 -58 l 231 121 q 113 299 156 196 q 69 522 69 401 q 107 732 69 632 q 209 908 144 832 q 361 1028 274 983 q 547 1072 449 1072 q 676 1053 615 1072 q 789 997 736 1033 l 861 1113 l 972 1113 l 861 936 q 980 752 936 860 q 1024 522 1024 644 q 988 313 1024 411 q 890 142 953 215 q 739 27 826 69 q 547 -15 651 -15 m 386 192 q 463 135 422 156 q 549 115 504 115 q 660 147 610 115 q 746 235 710 179 q 802 366 782 290 q 822 529 822 442 q 809 672 822 604 q 768 792 796 739 l 386 192 m 549 942 q 441 910 492 942 q 352 822 390 878 q 292 692 314 767 q 269 529 269 617 q 285 392 269 456 q 328 275 300 328 l 710 874 q 638 924 678 906 q 549 942 597 942 z "},"Ù":{"ha":944,"x_min":69,"x_max":875,"o":"m 844 911 l 844 319 q 815 171 844 233 q 735 68 785 108 q 621 8 686 28 q 485 -12 556 -12 q 319 13 392 -12 q 197 87 247 39 q 121 203 147 135 q 94 358 94 272 l 94 908 q 94 956 94 938 q 91 991 93 975 q 84 1022 89 1007 q 69 1056 79 1036 l 310 1056 q 292 1022 299 1036 q 282 992 286 1007 q 276 957 278 976 q 275 908 275 938 l 275 367 q 329 183 275 250 q 492 117 383 117 q 644 176 588 117 q 700 342 700 236 l 700 913 q 699 961 700 942 q 695 996 699 981 q 686 1024 692 1011 q 672 1054 681 1038 l 875 1054 q 859 1022 865 1036 q 850 994 853 1008 q 846 960 847 979 q 844 911 844 940 m 457 1156 l 278 1364 l 469 1364 l 553 1156 l 457 1156 z "},"Ú":{"ha":944,"x_min":69,"x_max":875,"o":"m 844 911 l 844 319 q 815 171 844 233 q 735 68 785 108 q 621 8 686 28 q 485 -12 556 -12 q 319 13 392 -12 q 197 87 247 39 q 121 203 147 135 q 94 358 94 272 l 94 908 q 94 956 94 938 q 91 991 93 975 q 84 1022 89 1007 q 69 1056 79 1036 l 310 1056 q 292 1022 299 1036 q 282 992 286 1007 q 276 957 278 976 q 275 908 275 938 l 275 367 q 329 183 275 250 q 492 117 383 117 q 644 176 588 117 q 700 342 700 236 l 700 913 q 699 961 700 942 q 695 996 699 981 q 686 1024 692 1011 q 672 1054 681 1038 l 875 1054 q 859 1022 865 1036 q 850 994 853 1008 q 846 960 847 979 q 844 911 844 940 m 497 1156 l 401 1156 l 485 1364 l 676 1364 l 497 1156 z "},"Û":{"ha":944,"x_min":69,"x_max":875,"o":"m 844 911 l 844 319 q 815 171 844 233 q 735 68 785 108 q 621 8 686 28 q 485 -12 556 -12 q 319 13 392 -12 q 197 87 247 39 q 121 203 147 135 q 94 358 94 272 l 94 908 q 94 956 94 938 q 91 991 93 975 q 84 1022 89 1007 q 69 1056 79 1036 l 310 1056 q 292 1022 299 1036 q 282 992 286 1007 q 276 957 278 976 q 275 908 275 938 l 275 367 q 329 183 275 250 q 492 117 383 117 q 644 176 588 117 q 700 342 700 236 l 700 913 q 699 961 700 942 q 695 996 699 981 q 686 1024 692 1011 q 672 1054 681 1038 l 875 1054 q 859 1022 865 1036 q 850 994 853 1008 q 846 960 847 979 q 844 911 844 940 m 399 1364 l 557 1364 l 696 1169 l 590 1169 l 476 1278 l 361 1169 l 256 1169 l 399 1364 z "},"Ü":{"ha":944,"x_min":69,"x_max":875,"o":"m 844 911 l 844 319 q 815 171 844 233 q 735 68 785 108 q 621 8 686 28 q 485 -12 556 -12 q 319 13 392 -12 q 197 87 247 39 q 121 203 147 135 q 94 358 94 272 l 94 908 q 94 956 94 938 q 91 991 93 975 q 84 1022 89 1007 q 69 1056 79 1036 l 310 1056 q 292 1022 299 1036 q 282 992 286 1007 q 276 957 278 976 q 275 908 275 938 l 275 367 q 329 183 275 250 q 492 117 383 117 q 644 176 588 117 q 700 342 700 236 l 700 913 q 699 961 700 942 q 695 996 699 981 q 686 1024 692 1011 q 672 1054 681 1038 l 875 1054 q 859 1022 865 1036 q 850 994 853 1008 q 846 960 847 979 q 844 911 844 940 m 707 1261 q 683 1194 707 1222 q 622 1167 658 1167 q 563 1194 588 1167 q 538 1261 538 1222 q 563 1328 538 1301 q 622 1354 588 1354 q 683 1327 658 1354 q 707 1261 707 1300 m 435 1261 q 410 1194 435 1222 q 350 1167 385 1167 q 290 1194 315 1167 q 265 1261 265 1222 q 290 1328 265 1301 q 350 1354 315 1354 q 410 1327 385 1354 q 435 1261 435 1300 z "},"Ý":{"ha":958,"x_min":21,"x_max":938,"o":"m 518 617 q 545 670 529 642 q 589 746 561 699 l 711 963 q 731 1008 726 989 q 733 1054 736 1028 l 938 1054 q 913 1028 924 1040 q 893 1001 903 1015 q 872 969 883 988 q 844 924 860 950 l 589 485 l 589 113 q 595 46 589 69 q 615 0 601 22 l 386 0 q 409 48 403 25 q 415 117 415 71 l 415 460 l 121 936 q 74 1003 94 979 q 21 1056 53 1028 l 288 1056 q 311 954 283 1001 l 442 744 q 486 670 469 699 q 514 617 503 642 l 518 617 m 513 1154 l 417 1154 l 500 1363 l 692 1363 l 513 1154 z "},"Þ":{"ha":743,"x_min":69,"x_max":688,"o":"m 392 229 l 275 229 l 275 149 q 283 67 275 99 q 314 0 292 35 l 74 0 q 88 30 82 15 q 98 62 94 44 q 103 103 101 79 q 104 160 104 126 l 103 943 q 97 1006 103 983 q 69 1056 92 1028 l 308 1056 q 291 1028 297 1040 q 281 1003 285 1017 q 276 973 278 989 q 275 935 275 957 l 275 842 l 386 842 q 517 810 461 842 q 611 731 574 778 q 668 628 649 683 q 688 526 688 572 q 667 424 688 476 q 610 328 647 371 q 517 257 572 285 q 392 229 463 229 m 338 711 l 275 711 l 275 358 l 342 358 q 458 397 411 358 q 506 525 506 435 q 460 660 506 608 q 338 711 415 711 z "},"ß":{"ha":793,"x_min":35,"x_max":744,"o":"m 286 -192 q 242 -190 261 -192 q 208 -186 224 -189 l 208 -150 q 245 -149 225 -150 q 274 -147 265 -149 q 392 -108 336 -139 q 488 -28 447 -76 q 551 83 528 21 q 575 213 575 144 q 521 360 575 304 q 376 431 467 415 l 489 632 l 286 632 l 286 106 q 296 60 286 85 q 333 -6 306 35 l 71 -6 q 114 60 106 36 q 122 107 122 83 l 124 632 l 35 632 l 35 760 l 124 760 l 124 857 q 138 944 124 904 q 178 1013 151 983 q 245 1058 206 1042 q 335 1074 285 1074 q 420 1060 383 1074 q 492 1018 457 1046 l 458 871 q 415 924 443 904 q 361 944 386 944 q 336 941 349 944 q 313 928 324 938 q 294 902 301 918 q 288 860 288 886 l 288 760 l 717 760 l 576 517 q 696 410 647 483 q 744 232 744 336 q 705 55 744 133 q 601 -78 665 -24 q 454 -162 536 -133 q 286 -192 372 -192 z "},"à":{"ha":747,"x_min":49,"x_max":692,"o":"m 364 847 l 185 1056 l 375 1056 l 460 847 l 364 847 m 501 -1 l 501 54 q 416 1 463 18 q 303 -15 369 -15 q 217 -1 261 -15 q 135 42 172 14 q 73 114 97 71 q 49 214 49 157 q 65 297 49 261 q 108 359 81 333 q 169 403 135 385 q 242 433 204 421 q 318 454 279 446 q 393 471 357 463 q 499 500 460 483 l 499 508 q 488 574 499 547 q 458 616 476 600 q 417 638 440 632 q 369 644 394 644 q 251 615 310 644 q 131 522 192 585 l 154 697 q 265 749 208 733 q 385 764 322 764 q 583 696 508 764 q 658 492 658 628 l 658 121 q 665 51 658 76 q 692 -1 672 25 l 501 -1 m 496 374 q 412 353 460 363 q 322 328 364 343 q 245 285 274 311 q 217 214 217 258 q 250 141 217 169 q 343 113 283 113 q 427 131 389 113 q 496 182 465 150 l 496 374 z "},"á":{"ha":747,"x_min":49,"x_max":692,"o":"m 496 -1 l 496 49 q 414 1 458 17 q 303 -15 369 -15 q 217 -1 261 -15 q 135 42 172 14 q 73 114 97 71 q 49 214 49 157 q 65 297 49 261 q 108 359 81 333 q 169 403 135 385 q 242 433 204 421 q 318 454 279 446 q 393 471 357 463 q 499 500 460 483 l 499 508 q 488 574 499 547 q 458 616 476 600 q 417 638 440 632 q 369 644 394 644 q 251 615 310 644 q 131 522 192 585 l 154 697 q 265 749 208 733 q 385 764 322 764 q 583 696 508 764 q 658 492 658 628 l 658 121 q 665 51 658 76 q 692 -1 672 25 l 496 -1 m 496 374 q 412 353 460 363 q 322 328 364 343 q 245 285 274 311 q 217 214 217 258 q 250 141 217 169 q 343 113 283 113 q 427 131 389 113 q 496 182 465 150 l 496 374 m 400 847 l 304 847 l 388 1056 l 579 1056 l 400 847 z "},"â":{"ha":747,"x_min":49,"x_max":692,"o":"m 296 1056 l 454 1056 l 593 861 l 488 861 l 374 969 l 258 861 l 153 861 l 296 1056 m 501 -1 l 501 54 q 416 1 463 18 q 303 -15 369 -15 q 217 -1 261 -15 q 135 42 172 14 q 73 114 97 71 q 49 214 49 157 q 65 297 49 261 q 108 359 81 333 q 169 403 135 385 q 242 433 204 421 q 318 454 279 446 q 393 471 357 463 q 499 500 460 483 l 499 508 q 488 574 499 547 q 458 616 476 600 q 417 638 440 632 q 369 644 394 644 q 251 615 310 644 q 131 522 192 585 l 154 697 q 265 749 208 733 q 385 764 322 764 q 583 696 508 764 q 658 492 658 628 l 658 121 q 665 51 658 76 q 692 -1 672 25 l 501 -1 m 496 374 q 412 353 460 363 q 322 328 364 343 q 245 285 274 311 q 217 214 217 258 q 250 141 217 169 q 343 113 283 113 q 427 131 389 113 q 496 182 465 150 l 496 374 z "},"ã":{"ha":747,"x_min":49,"x_max":692,"o":"m 490 856 q 431 867 458 856 q 378 890 403 878 q 354 903 367 897 q 331 913 342 908 q 286 922 310 922 q 222 860 236 922 l 144 860 q 155 925 146 892 q 181 985 164 958 q 223 1028 197 1011 q 282 1044 249 1044 q 343 1033 314 1044 q 397 1010 372 1022 q 423 997 411 1003 q 446 988 435 992 q 485 978 467 978 q 530 992 513 978 q 554 1040 547 1007 l 633 1040 q 623 974 632 1007 q 597 915 614 942 q 553 872 579 889 q 490 856 526 856 m 501 -1 l 501 54 q 416 1 463 18 q 303 -15 369 -15 q 217 -1 261 -15 q 135 42 172 14 q 73 114 97 71 q 49 214 49 157 q 65 297 49 261 q 108 359 81 333 q 169 403 135 385 q 242 433 204 421 q 318 454 279 446 q 393 471 357 463 q 499 500 460 483 l 499 508 q 488 574 499 547 q 458 616 476 600 q 417 638 440 632 q 369 644 394 644 q 251 615 310 644 q 131 522 192 585 l 154 697 q 265 749 208 733 q 385 764 322 764 q 583 696 508 764 q 658 492 658 628 l 658 121 q 665 51 658 76 q 692 -1 672 25 l 501 -1 m 496 374 q 412 353 460 363 q 322 328 364 343 q 245 285 274 311 q 217 214 217 258 q 250 141 217 169 q 343 113 283 113 q 427 131 389 113 q 496 182 465 150 l 496 374 z "},"ä":{"ha":747,"x_min":49,"x_max":692,"o":"m 593 957 q 569 889 593 917 q 510 861 546 861 q 449 889 474 861 q 424 957 424 917 q 449 1023 424 996 q 510 1050 474 1050 q 569 1022 546 1050 q 593 957 593 994 m 322 957 q 297 889 322 917 q 238 861 272 861 q 176 889 201 861 q 151 957 151 917 q 176 1023 151 996 q 238 1050 201 1050 q 297 1022 272 1050 q 322 957 322 994 m 501 -1 l 501 54 q 416 1 463 18 q 303 -15 369 -15 q 217 -1 261 -15 q 135 42 172 14 q 73 114 97 71 q 49 214 49 157 q 65 297 49 261 q 108 359 81 333 q 169 403 135 385 q 242 433 204 421 q 318 454 279 446 q 393 471 357 463 q 499 500 460 483 l 499 508 q 488 574 499 547 q 458 616 476 600 q 417 638 440 632 q 369 644 394 644 q 251 615 310 644 q 131 522 192 585 l 154 697 q 265 749 208 733 q 385 764 322 764 q 583 696 508 764 q 658 492 658 628 l 658 121 q 665 51 658 76 q 692 -1 672 25 l 501 -1 m 496 374 q 412 353 460 363 q 322 328 364 343 q 245 285 274 311 q 217 214 217 258 q 250 141 217 169 q 343 113 283 113 q 427 131 389 113 q 496 182 465 150 l 496 374 z "},"å":{"ha":747,"x_min":49,"x_max":692,"o":"m 385 847 q 335 858 358 847 q 293 888 311 869 q 265 933 275 907 q 254 988 254 958 q 265 1042 254 1017 q 293 1087 275 1068 q 335 1116 311 1106 q 385 1126 358 1126 q 435 1116 411 1126 q 476 1087 458 1106 q 505 1042 494 1068 q 515 988 515 1017 q 505 933 515 958 q 476 888 494 907 q 435 858 458 869 q 385 847 411 847 m 385 1047 q 348 1031 364 1047 q 332 988 332 1014 q 348 943 332 960 q 385 926 364 926 q 422 943 406 926 q 438 988 438 960 q 422 1031 438 1014 q 385 1047 406 1047 m 501 -1 l 501 54 q 416 1 463 18 q 303 -15 369 -15 q 217 -1 261 -15 q 135 42 172 14 q 73 114 97 71 q 49 214 49 157 q 65 297 49 261 q 108 359 81 333 q 169 403 135 385 q 242 433 204 421 q 318 454 279 446 q 393 471 357 463 q 499 500 460 483 l 499 508 q 488 574 499 547 q 458 616 476 600 q 417 638 440 632 q 369 644 394 644 q 251 615 310 644 q 131 522 192 585 l 154 697 q 265 749 208 733 q 385 764 322 764 q 583 696 508 764 q 658 492 658 628 l 658 121 q 665 51 658 76 q 692 -1 672 25 l 501 -1 m 496 374 q 412 353 460 363 q 322 328 364 343 q 245 285 274 311 q 217 214 217 258 q 250 141 217 169 q 343 113 283 113 q 427 131 389 113 q 496 182 465 150 l 496 374 z "},"æ":{"ha":1181,"x_min":49,"x_max":1125,"o":"m 496 374 q 412 353 460 363 q 322 328 364 343 q 245 285 274 311 q 217 214 217 258 q 250 141 217 169 q 344 113 283 113 q 427 131 389 113 q 496 182 465 150 l 496 374 m 628 328 q 690 169 636 228 q 836 111 744 111 q 967 137 907 111 q 1085 226 1028 163 l 1057 47 q 828 -15 971 -15 q 669 13 740 -15 q 549 97 597 42 q 526 74 538 83 q 501 53 514 64 q 417 4 464 24 q 303 -15 369 -15 q 217 -1 261 -15 q 135 42 172 14 q 73 114 97 71 q 49 214 49 157 q 65 297 49 261 q 108 359 81 333 q 169 403 135 385 q 242 433 204 421 q 318 454 279 446 q 393 471 357 463 q 499 500 460 483 l 499 508 q 488 574 499 547 q 458 616 476 600 q 417 638 440 632 q 369 644 394 644 q 251 615 310 644 q 131 522 192 585 l 154 697 q 265 749 208 733 q 385 764 322 764 q 590 690 517 764 q 685 745 633 726 q 793 764 738 764 q 919 737 861 764 q 1022 656 978 710 q 1094 519 1067 601 q 1125 328 1121 438 l 628 328 m 792 639 q 693 592 738 639 q 633 456 649 544 l 950 456 q 896 592 939 544 q 792 639 853 639 z "},"ç":{"ha":675,"x_min":56,"x_max":619,"o":"m 417 -306 q 380 -302 394 -306 q 346 -289 365 -299 l 321 -196 q 404 -228 356 -228 q 439 -213 425 -228 q 453 -179 453 -199 q 438 -144 453 -158 q 407 -131 424 -131 q 385 -135 394 -131 q 365 -150 376 -139 l 318 -137 l 340 -10 q 133 109 210 13 q 56 371 56 206 q 83 535 56 463 q 157 658 110 607 q 267 737 204 710 q 403 764 331 764 q 606 703 519 764 l 606 533 q 522 616 565 592 q 417 640 479 640 q 344 623 379 640 q 282 572 308 606 q 240 487 256 538 q 224 371 224 436 q 240 257 224 306 q 283 176 256 208 q 347 128 311 144 q 424 111 383 111 q 531 136 488 111 q 619 219 575 161 l 619 44 q 534 1 583 17 q 418 -15 485 -15 l 408 -58 l 419 -58 q 501 -95 468 -58 q 533 -181 533 -132 q 523 -234 533 -211 q 496 -273 513 -257 q 458 -297 479 -289 q 417 -306 438 -306 z "},"è":{"ha":778,"x_min":56,"x_max":722,"o":"m 225 328 q 288 169 233 228 q 433 111 342 111 q 565 137 504 111 q 682 226 625 163 l 653 47 q 554 1 613 17 q 425 -15 496 -15 q 275 10 343 -15 q 158 83 207 35 q 83 204 110 132 q 56 371 56 276 q 83 539 56 465 q 158 663 111 613 q 265 738 204 713 q 390 764 325 764 q 517 737 458 764 q 621 656 576 710 q 692 519 665 601 q 722 328 718 438 l 225 328 m 389 639 q 290 592 335 639 q 231 456 246 544 l 547 456 q 493 592 536 544 q 389 639 450 639 m 378 847 l 199 1056 l 389 1056 l 474 847 l 378 847 z "},"é":{"ha":778,"x_min":56,"x_max":722,"o":"m 225 328 q 288 169 233 228 q 433 111 342 111 q 565 137 504 111 q 682 226 625 163 l 653 47 q 554 1 613 17 q 425 -15 496 -15 q 275 10 343 -15 q 158 83 207 35 q 83 204 110 132 q 56 371 56 276 q 83 539 56 465 q 158 663 111 613 q 265 738 204 713 q 390 764 325 764 q 517 737 458 764 q 621 656 576 710 q 692 519 665 601 q 722 328 718 438 l 225 328 m 389 639 q 290 592 335 639 q 231 456 246 544 l 547 456 q 493 592 536 544 q 389 639 450 639 m 419 847 l 324 847 l 407 1056 l 599 1056 l 419 847 z "},"ê":{"ha":778,"x_min":56,"x_max":722,"o":"m 225 328 q 288 169 233 228 q 433 111 342 111 q 565 137 504 111 q 682 226 625 163 l 653 47 q 554 1 613 17 q 425 -15 496 -15 q 275 10 343 -15 q 158 83 207 35 q 83 204 110 132 q 56 371 56 276 q 83 539 56 465 q 158 663 111 613 q 265 738 204 713 q 390 764 325 764 q 517 737 458 764 q 621 656 576 710 q 692 519 665 601 q 722 328 718 438 l 225 328 m 389 639 q 290 592 335 639 q 231 456 246 544 l 547 456 q 493 592 536 544 q 389 639 450 639 m 313 1056 l 471 1056 l 610 861 l 504 861 l 390 969 l 275 861 l 169 861 l 313 1056 z "},"ë":{"ha":778,"x_min":56,"x_max":722,"o":"m 225 328 q 288 169 233 228 q 433 111 342 111 q 565 137 504 111 q 682 226 625 163 l 653 47 q 554 1 613 17 q 425 -15 496 -15 q 275 10 343 -15 q 158 83 207 35 q 83 204 110 132 q 56 371 56 276 q 83 539 56 465 q 158 663 111 613 q 265 738 204 713 q 390 764 325 764 q 517 737 458 764 q 621 656 576 710 q 692 519 665 601 q 722 328 718 438 l 225 328 m 389 639 q 290 592 335 639 q 231 456 246 544 l 547 456 q 493 592 536 544 q 389 639 450 639 m 608 957 q 585 889 608 917 q 525 861 561 861 q 464 889 489 861 q 439 957 439 917 q 464 1023 439 996 q 525 1050 489 1050 q 585 1022 561 1050 q 608 957 608 994 m 338 957 q 313 889 338 917 q 253 861 288 861 q 192 889 217 861 q 167 957 167 917 q 192 1023 167 996 q 253 1050 217 1050 q 313 1022 288 1050 q 338 957 338 994 z "},"ì":{"ha":399,"x_min":17,"x_max":315,"o":"m 315 0 l 83 0 q 112 48 104 26 q 119 110 119 69 l 121 626 l 121 643 q 113 707 121 685 q 85 750 106 729 l 283 750 l 282 111 q 290 53 282 79 q 315 0 297 26 m 196 847 l 17 1056 l 207 1056 l 292 847 l 196 847 z "},"í":{"ha":399,"x_min":82,"x_max":357,"o":"m 315 0 l 83 0 q 112 48 104 26 q 119 110 119 69 l 121 626 l 121 643 q 113 707 121 685 q 85 750 106 729 l 283 750 l 282 111 q 290 53 282 79 q 315 0 297 26 m 178 847 l 82 847 l 165 1056 l 357 1056 l 178 847 z "},"î":{"ha":399,"x_min":-29,"x_max":411,"o":"m 315 0 l 83 0 q 112 48 104 26 q 119 110 119 69 l 121 626 l 121 643 q 113 707 121 685 q 85 750 106 729 l 283 750 l 282 111 q 290 53 282 79 q 315 0 297 26 m 114 1056 l 272 1056 l 411 861 l 306 861 l 192 969 l 76 861 l -29 861 l 114 1056 z "},"ï":{"ha":399,"x_min":-21,"x_max":421,"o":"m 315 0 l 83 0 q 112 48 104 26 q 119 110 119 69 l 121 626 l 121 643 q 113 707 121 685 q 85 750 106 729 l 283 750 l 282 111 q 290 53 282 79 q 315 0 297 26 m 421 957 q 397 889 421 917 q 338 861 374 861 q 276 889 301 861 q 251 957 251 917 q 276 1023 251 996 q 338 1050 301 1050 q 397 1022 374 1050 q 421 957 421 994 m 150 957 q 125 889 150 917 q 65 861 100 861 q 4 889 29 861 q -21 957 -21 917 q 4 1023 -21 996 q 65 1050 29 1050 q 125 1022 100 1050 q 150 957 150 994 z "},"ð":{"ha":829,"x_min":56,"x_max":774,"o":"m 415 -14 q 253 17 321 -14 q 141 101 185 47 q 76 225 97 154 q 56 378 56 296 q 78 526 56 454 q 144 653 100 597 q 256 742 189 708 q 414 775 324 775 q 474 771 444 775 q 429 840 454 807 q 374 900 404 872 l 297 857 q 249 826 275 844 q 203 793 222 808 l 201 918 l 289 967 q 153 1031 229 1004 l 161 1072 q 272 1051 219 1065 q 372 1013 324 1036 l 488 1076 q 523 1097 507 1088 q 556 1122 539 1107 l 556 1000 l 472 954 q 599 838 543 904 q 694 696 656 771 q 753 539 732 621 q 774 376 774 457 q 753 222 774 293 q 690 99 733 151 q 579 16 647 46 q 415 -14 511 -14 m 414 649 q 323 625 360 649 q 264 563 286 601 q 233 476 242 524 q 224 378 224 428 q 234 283 224 331 q 267 199 244 236 q 326 138 290 161 q 413 115 361 115 q 501 138 464 115 q 560 199 538 161 q 594 283 583 236 q 606 378 606 329 q 596 476 606 428 q 564 563 586 525 q 505 625 542 601 q 414 649 468 649 z "},"ñ":{"ha":853,"x_min":56,"x_max":797,"o":"m 567 0 q 583 23 576 13 q 594 46 590 33 q 600 74 599 58 q 601 113 601 90 l 601 401 q 558 584 601 529 q 435 639 514 639 q 353 616 396 639 q 275 547 310 593 l 275 174 q 276 110 275 135 q 280 66 276 85 q 290 33 283 47 q 310 0 297 18 l 57 0 q 84 33 74 18 q 100 67 94 49 q 108 113 106 86 q 110 179 110 139 l 110 574 q 108 635 110 610 q 99 679 106 660 q 83 715 93 699 q 56 750 72 731 l 271 750 l 271 690 q 363 745 311 726 q 465 764 414 764 q 588 740 532 764 q 683 670 643 715 q 744 563 722 625 q 767 425 767 500 l 767 115 q 772 47 767 69 q 797 0 778 25 l 567 0 m 539 856 q 479 867 507 856 q 426 890 451 878 q 403 903 415 897 q 379 913 390 908 q 335 922 358 922 q 271 860 285 922 l 193 860 q 203 925 194 892 q 229 985 213 958 q 272 1028 246 1011 q 331 1044 297 1044 q 392 1033 363 1044 q 446 1010 421 1022 q 472 997 460 1003 q 494 988 483 992 q 533 978 515 978 q 578 992 561 978 q 603 1040 596 1007 l 682 1040 q 672 974 681 1007 q 645 915 663 942 q 601 872 628 889 q 539 856 575 856 z "},"ò":{"ha":829,"x_min":56,"x_max":774,"o":"m 415 -14 q 270 10 336 -14 q 156 81 204 33 q 82 202 108 129 q 56 372 56 275 q 82 532 56 460 q 156 656 108 604 q 269 735 203 707 q 414 764 335 764 q 558 735 492 764 q 672 656 624 707 q 747 532 719 604 q 774 372 774 460 q 748 201 774 274 q 675 81 722 129 q 562 10 628 33 q 415 -14 496 -14 m 414 639 q 273 569 322 639 q 224 372 224 500 q 278 178 224 244 q 413 113 332 113 q 488 129 453 113 q 549 179 524 146 q 590 261 575 213 q 606 372 606 310 q 556 569 606 500 q 414 639 506 639 m 406 847 l 226 1056 l 417 1056 l 501 847 l 406 847 z "},"ó":{"ha":829,"x_min":56,"x_max":774,"o":"m 415 -14 q 270 10 336 -14 q 156 81 204 33 q 82 202 108 129 q 56 372 56 275 q 82 532 56 460 q 156 656 108 604 q 269 735 203 707 q 414 764 335 764 q 558 735 492 764 q 672 656 624 707 q 747 532 719 604 q 774 372 774 460 q 748 201 774 274 q 675 81 722 129 q 562 10 628 33 q 415 -14 496 -14 m 414 639 q 273 569 322 639 q 224 372 224 500 q 278 178 224 244 q 413 113 332 113 q 488 129 453 113 q 549 179 524 146 q 590 261 575 213 q 606 372 606 310 q 556 569 606 500 q 414 639 506 639 m 413 847 l 317 847 l 400 1056 l 592 1056 l 413 847 z "},"ô":{"ha":829,"x_min":56,"x_max":774,"o":"m 415 -14 q 270 10 336 -14 q 156 81 204 33 q 82 202 108 129 q 56 372 56 275 q 82 532 56 460 q 156 656 108 604 q 269 735 203 707 q 414 764 335 764 q 558 735 492 764 q 672 656 624 707 q 747 532 719 604 q 774 372 774 460 q 748 201 774 274 q 675 81 722 129 q 562 10 628 33 q 415 -14 496 -14 m 414 639 q 273 569 322 639 q 224 372 224 500 q 278 178 224 244 q 413 113 332 113 q 488 129 453 113 q 549 179 524 146 q 590 261 575 213 q 606 372 606 310 q 556 569 606 500 q 414 639 506 639 m 335 1056 l 493 1056 l 632 861 l 526 861 l 413 969 l 297 861 l 192 861 l 335 1056 z "},"õ":{"ha":829,"x_min":56,"x_max":774,"o":"m 415 -14 q 270 10 336 -14 q 156 81 204 33 q 82 202 108 129 q 56 372 56 275 q 82 532 56 460 q 156 656 108 604 q 269 735 203 707 q 414 764 335 764 q 558 735 492 764 q 672 656 624 707 q 747 532 719 604 q 774 372 774 460 q 748 201 774 274 q 675 81 722 129 q 562 10 628 33 q 415 -14 496 -14 m 414 639 q 273 569 322 639 q 224 372 224 500 q 278 178 224 244 q 413 113 332 113 q 488 129 453 113 q 549 179 524 146 q 590 261 575 213 q 606 372 606 310 q 556 569 606 500 q 414 639 506 639 m 514 856 q 454 867 482 856 q 401 890 426 878 q 378 903 390 897 q 354 913 365 908 q 310 922 333 922 q 246 860 260 922 l 168 860 q 178 925 169 892 q 204 985 188 958 q 247 1028 221 1011 q 306 1044 272 1044 q 367 1033 338 1044 q 421 1010 396 1022 q 447 997 435 1003 q 469 988 458 992 q 508 978 490 978 q 553 992 536 978 q 578 1040 571 1007 l 657 1040 q 647 974 656 1007 q 620 915 638 942 q 576 872 603 889 q 514 856 550 856 z "},"ö":{"ha":829,"x_min":56,"x_max":774,"o":"m 415 -14 q 270 10 336 -14 q 156 81 204 33 q 82 202 108 129 q 56 372 56 275 q 82 532 56 460 q 156 656 108 604 q 269 735 203 707 q 414 764 335 764 q 558 735 492 764 q 672 656 624 707 q 747 532 719 604 q 774 372 774 460 q 748 201 774 274 q 675 81 722 129 q 562 10 628 33 q 415 -14 496 -14 m 414 639 q 273 569 322 639 q 224 372 224 500 q 278 178 224 244 q 413 113 332 113 q 488 129 453 113 q 549 179 524 146 q 590 261 575 213 q 606 372 606 310 q 556 569 606 500 q 414 639 506 639 m 635 957 q 611 889 635 917 q 551 861 588 861 q 490 889 515 861 q 465 957 465 917 q 490 1023 465 996 q 551 1050 515 1050 q 611 1022 588 1050 q 635 957 635 994 m 364 957 q 339 889 364 917 q 279 861 314 861 q 218 889 243 861 q 193 957 193 917 q 218 1023 193 996 q 279 1050 243 1050 q 339 1022 314 1050 q 364 957 364 994 z "},"÷":{"ha":851,"x_min":69,"x_max":782,"o":"m 782 594 l 703 438 l 182 438 q 69 428 117 438 l 150 588 l 694 588 q 738 588 717 588 q 782 594 760 589 m 319 804 q 349 877 319 847 q 418 907 378 907 q 488 877 458 907 q 518 804 518 847 q 488 732 518 763 q 418 701 458 701 q 349 732 378 701 q 319 804 319 763 m 319 221 q 349 294 319 264 q 418 324 378 324 q 488 294 458 324 q 518 221 518 264 q 488 149 518 179 q 418 118 458 118 q 349 149 378 118 q 319 221 319 179 z "},"ø":{"ha":829,"x_min":56,"x_max":774,"o":"m 251 224 l 503 617 q 414 639 461 639 q 273 569 322 639 q 224 372 224 500 q 251 224 224 283 m 569 547 l 313 144 q 413 113 357 113 q 488 129 453 113 q 549 179 524 146 q 590 261 575 213 q 606 372 606 310 q 569 547 606 479 m 735 807 l 651 676 q 742 547 710 624 q 774 372 774 469 q 748 201 774 274 q 675 81 722 129 q 562 10 628 33 q 415 -14 496 -14 q 236 25 313 -14 l 183 -58 l 72 -58 l 160 79 q 83 200 111 128 q 56 372 56 272 q 82 532 56 460 q 156 656 108 604 q 269 735 203 707 q 414 764 335 764 q 574 729 500 764 l 624 807 l 735 807 z "},"ù":{"ha":819,"x_min":49,"x_max":764,"o":"m 565 0 l 565 61 q 481 6 529 25 q 381 -14 433 -14 q 261 10 315 -14 q 169 80 207 35 q 110 188 131 125 q 89 325 89 250 l 89 608 q 80 694 89 665 q 49 750 71 722 l 254 750 l 254 349 q 295 166 254 221 q 410 111 336 111 q 496 137 454 111 q 561 203 538 163 l 561 576 q 560 642 561 615 q 554 687 558 668 q 544 720 550 706 q 528 750 538 735 l 726 750 l 726 150 q 728 94 726 117 q 733 56 729 72 q 745 26 738 39 q 764 0 753 14 l 565 0 m 406 847 l 226 1056 l 417 1056 l 501 847 l 406 847 z "},"ú":{"ha":819,"x_min":49,"x_max":764,"o":"m 565 0 l 565 61 q 481 6 529 25 q 381 -14 433 -14 q 261 10 315 -14 q 169 80 207 35 q 110 188 131 125 q 89 325 89 250 l 89 608 q 80 694 89 665 q 49 750 71 722 l 254 750 l 254 349 q 295 166 254 221 q 410 111 336 111 q 496 137 454 111 q 561 203 538 163 l 561 576 q 560 642 561 615 q 554 687 558 668 q 544 720 550 706 q 528 750 538 735 l 726 750 l 726 150 q 728 94 726 117 q 733 56 729 72 q 745 26 738 39 q 764 0 753 14 l 565 0 m 414 847 l 318 847 l 401 1056 l 593 1056 l 414 847 z "},"û":{"ha":819,"x_min":49,"x_max":764,"o":"m 565 0 l 565 61 q 481 6 529 25 q 381 -14 433 -14 q 261 10 315 -14 q 169 80 207 35 q 110 188 131 125 q 89 325 89 250 l 89 608 q 80 694 89 665 q 49 750 71 722 l 254 750 l 254 349 q 295 166 254 221 q 410 111 336 111 q 496 137 454 111 q 561 203 538 163 l 561 576 q 560 642 561 615 q 554 687 558 668 q 544 720 550 706 q 528 750 538 735 l 726 750 l 726 150 q 728 94 726 117 q 733 56 729 72 q 745 26 738 39 q 764 0 753 14 l 565 0 m 321 1056 l 479 1056 l 618 861 l 513 861 l 399 969 l 283 861 l 178 861 l 321 1056 z "},"ü":{"ha":819,"x_min":49,"x_max":764,"o":"m 565 0 l 565 61 q 481 6 529 25 q 381 -14 433 -14 q 261 10 315 -14 q 169 80 207 35 q 110 188 131 125 q 89 325 89 250 l 89 608 q 80 694 89 665 q 49 750 71 722 l 254 750 l 254 349 q 295 166 254 221 q 410 111 336 111 q 496 137 454 111 q 561 203 538 163 l 561 576 q 560 642 561 615 q 554 687 558 668 q 544 720 550 706 q 528 750 538 735 l 726 750 l 726 150 q 728 94 726 117 q 733 56 729 72 q 745 26 738 39 q 764 0 753 14 l 565 0 m 628 957 q 604 889 628 917 q 544 861 581 861 q 483 889 508 861 q 458 957 458 917 q 483 1023 458 996 q 544 1050 508 1050 q 604 1022 581 1050 q 628 957 628 994 m 357 957 q 332 889 357 917 q 272 861 307 861 q 211 889 236 861 q 186 957 186 917 q 211 1023 186 996 q 272 1050 236 1050 q 332 1022 307 1050 q 357 957 357 994 z "},"ý":{"ha":750,"x_min":7,"x_max":736,"o":"m 736 750 q 687 676 707 714 q 644 582 667 638 l 367 -117 q 342 -224 342 -179 q 369 -306 342 -269 l 101 -306 l 310 86 l 114 574 q 65 674 89 635 q 7 750 40 714 l 256 750 q 271 621 242 700 l 365 376 q 384 326 376 350 q 399 279 392 303 l 403 279 l 529 603 q 549 685 544 643 q 547 750 553 726 l 736 750 m 392 847 l 296 847 l 379 1056 l 571 1056 l 392 847 z "},"þ":{"ha":850,"x_min":56,"x_max":794,"o":"m 461 -15 q 274 44 354 -15 l 274 -122 q 275 -192 274 -164 q 281 -241 276 -221 q 292 -276 285 -261 q 313 -306 300 -290 l 58 -306 q 83 -272 74 -287 q 99 -236 93 -256 q 106 -190 104 -217 q 108 -122 108 -162 l 108 860 q 96 983 108 940 q 56 1056 83 1025 l 274 1056 l 274 706 q 465 763 351 763 q 598 735 538 763 q 702 656 658 707 q 770 533 746 606 q 794 372 794 461 q 769 197 794 269 q 699 76 744 124 q 593 7 654 29 q 461 -15 532 -15 m 435 635 q 347 613 389 635 q 274 542 306 590 l 274 210 q 349 140 303 165 q 438 114 394 114 q 572 178 518 114 q 626 372 626 242 q 576 569 626 503 q 435 635 526 635 z "},"ÿ":{"ha":750,"x_min":7,"x_max":736,"o":"m 403 279 l 529 603 q 549 685 544 643 q 547 750 553 726 l 736 750 q 687 676 707 714 q 644 582 667 638 l 367 -117 q 342 -224 342 -179 q 369 -306 342 -269 l 101 -306 l 310 86 l 114 574 q 65 674 89 635 q 7 750 40 714 l 256 750 q 271 621 242 700 l 365 376 q 384 326 376 350 q 399 279 392 303 l 403 279 m 593 957 q 569 889 593 917 q 510 861 546 861 q 449 889 474 861 q 424 957 424 917 q 449 1023 424 996 q 510 1050 474 1050 q 569 1022 546 1050 q 593 957 593 994 m 322 957 q 297 889 322 917 q 238 861 272 861 q 176 889 201 861 q 151 957 151 917 q 176 1023 151 996 q 238 1050 201 1050 q 297 1022 272 1050 q 322 957 322 994 z "},"ı":{"ha":399,"x_min":83,"x_max":315,"o":"m 315 0 l 83 0 q 112 48 104 26 q 119 110 119 69 l 121 626 l 121 643 q 113 707 121 685 q 85 750 106 729 l 283 750 l 282 111 q 290 53 282 79 q 315 0 297 26 z "},"Œ":{"ha":1467,"x_min":69,"x_max":1411,"o":"m 549 942 q 441 910 492 942 q 352 822 390 878 q 292 692 314 767 q 269 529 269 617 q 292 366 269 442 q 352 235 314 290 q 441 147 390 179 q 549 115 492 115 q 660 147 610 115 q 746 235 710 179 q 802 366 782 290 q 822 529 822 442 q 804 692 822 617 q 751 822 786 767 q 665 910 715 878 q 549 942 614 942 m 1411 192 q 1396 104 1403 143 q 1384 39 1389 69 q 1378 0 1379 8 l 785 0 q 815 72 807 31 q 691 8 758 31 q 547 -15 624 -15 q 361 27 449 -15 q 209 142 274 69 q 107 313 144 215 q 69 522 69 411 q 107 732 69 632 q 209 908 144 832 q 361 1028 274 983 q 547 1072 449 1072 q 693 1047 625 1072 q 819 975 761 1021 q 800 1056 815 1024 l 1238 1056 q 1310 1058 1285 1056 q 1361 1068 1336 1061 l 1347 893 q 1283 914 1315 908 q 1203 919 1251 919 l 1000 919 l 1000 621 l 1190 621 q 1259 626 1235 621 q 1311 647 1283 632 l 1311 464 q 1283 476 1296 472 q 1256 483 1269 481 q 1226 487 1242 486 q 1190 488 1211 488 l 1000 488 l 1000 151 q 1014 145 1006 149 q 1032 139 1022 142 q 1063 135 1040 136 q 1107 133 1086 133 l 1168 133 l 1228 133 q 1411 192 1336 133 z "},"œ":{"ha":1319,"x_min":56,"x_max":1264,"o":"m 414 639 q 273 569 322 639 q 224 372 224 500 q 278 178 224 244 q 413 113 332 113 q 488 129 453 113 q 549 179 524 146 q 590 261 575 213 q 606 372 606 310 q 556 569 606 500 q 414 639 506 639 m 767 328 q 829 169 775 228 q 975 111 883 111 q 1106 137 1046 111 q 1224 226 1167 163 l 1196 47 q 967 -15 1110 -15 q 808 13 879 -15 q 688 96 738 40 q 571 13 640 40 q 415 -14 501 -14 q 270 10 336 -14 q 156 81 204 33 q 82 202 108 129 q 56 372 56 275 q 82 532 56 460 q 156 656 108 604 q 269 735 203 707 q 414 764 335 764 q 566 733 497 764 q 683 643 635 701 q 796 733 731 703 q 932 764 861 764 q 1058 737 1000 764 q 1161 656 1117 710 q 1233 519 1206 601 q 1264 328 1260 438 l 767 328 m 931 639 q 832 592 876 639 q 772 456 788 544 l 1089 456 q 1035 592 1078 544 q 931 639 992 639 z "},"Š":{"ha":728,"x_min":69,"x_max":672,"o":"m 672 279 q 656 186 672 238 q 601 90 640 135 q 497 15 563 44 q 332 -15 431 -15 q 78 39 190 -15 l 76 246 q 190 147 126 179 q 325 115 253 115 q 449 150 403 115 q 494 247 494 185 q 474 326 494 292 q 404 396 453 361 l 222 525 q 160 574 189 549 q 112 631 132 600 q 81 702 92 663 q 69 794 69 742 q 94 903 69 853 q 163 992 119 954 q 265 1051 207 1029 q 390 1072 324 1072 q 518 1060 467 1072 q 615 1022 569 1047 l 615 838 q 520 919 569 896 q 404 942 471 942 q 294 905 339 942 q 250 810 250 868 q 281 726 250 758 q 364 657 311 694 l 528 540 q 639 423 606 485 q 672 279 672 361 m 454 1169 l 296 1169 l 157 1364 l 263 1364 l 376 1256 l 492 1364 l 597 1364 l 454 1169 z "},"š":{"ha":532,"x_min":56,"x_max":504,"o":"m 249 -15 q 153 -4 201 -15 q 64 28 104 7 l 64 210 q 242 111 136 111 q 322 137 294 111 q 349 203 349 163 q 338 247 349 228 q 308 285 328 267 q 265 318 288 303 q 240 335 253 326 q 213 351 226 343 q 158 388 185 368 q 108 434 131 408 q 72 492 86 460 q 58 565 58 524 q 123 710 58 657 q 300 764 188 764 q 388 747 343 764 q 464 701 433 729 l 464 538 q 397 609 442 581 q 304 638 353 638 q 238 617 260 638 q 217 575 217 597 q 256 500 217 532 q 276 484 265 492 q 299 468 286 476 q 324 453 311 461 q 351 436 338 444 q 406 399 378 419 q 455 352 433 379 q 490 291 476 325 q 504 213 504 257 q 435 47 504 108 q 249 -15 365 -15 m 353 861 l 194 861 l 56 1056 l 161 1056 l 275 947 l 390 1056 l 496 1056 l 353 861 z "},"Ÿ":{"ha":958,"x_min":21,"x_max":938,"o":"m 518 617 q 545 670 529 642 q 589 746 561 699 l 711 963 q 731 1008 726 989 q 733 1054 736 1028 l 938 1054 q 913 1028 924 1040 q 893 1001 903 1015 q 872 969 883 988 q 844 924 860 950 l 589 485 l 589 113 q 595 46 589 69 q 615 0 601 22 l 386 0 q 409 48 403 25 q 415 117 415 71 l 415 460 l 121 936 q 74 1003 94 979 q 21 1056 53 1028 l 288 1056 q 311 954 283 1001 l 442 744 q 486 670 469 699 q 514 617 503 642 l 518 617 m 721 1265 q 697 1197 721 1225 q 638 1169 674 1169 q 576 1197 601 1169 q 551 1265 551 1225 q 576 1331 551 1304 q 638 1358 601 1358 q 697 1331 674 1358 q 721 1265 721 1303 m 450 1265 q 425 1197 450 1225 q 365 1169 400 1169 q 304 1197 329 1169 q 279 1265 279 1225 q 304 1331 279 1304 q 365 1358 329 1358 q 425 1331 400 1358 q 450 1265 450 1303 z "},"Ž":{"ha":785,"x_min":42,"x_max":743,"o":"m 71 896 l 71 1065 q 131 1058 104 1060 q 194 1056 158 1056 l 733 1056 l 289 136 l 625 136 q 696 140 672 136 q 743 156 719 144 l 743 -11 q 697 -2 719 -4 q 632 0 674 0 l 42 0 l 486 919 l 199 919 q 124 915 154 919 q 71 896 94 910 m 482 1169 l 322 1169 l 185 1364 l 290 1364 l 403 1256 l 519 1364 l 625 1364 l 482 1169 z "},"ž":{"ha":715,"x_min":35,"x_max":681,"o":"m 572 0 l 35 0 l 410 636 l 201 636 q 118 631 144 636 q 64 610 92 626 l 64 764 q 182 750 106 750 l 667 750 l 290 114 l 565 114 q 633 119 607 114 q 681 136 660 125 l 681 -17 q 641 -3 663 -7 q 572 0 619 0 m 447 861 l 288 861 l 150 1056 l 256 1056 l 368 947 l 485 1056 l 590 1056 l 447 861 z "},"ƒ":{"ha":735,"x_min":0,"x_max":749,"o":"m 719 890 q 677 935 703 919 q 624 950 651 950 q 544 872 571 950 q 528 799 535 836 q 524 778 525 788 q 522 761 524 769 l 681 761 l 665 631 l 503 631 l 442 222 q 432 150 438 190 q 418 65 426 110 q 399 -25 411 21 q 372 -115 388 -71 q 333 -198 356 -158 q 281 -267 311 -237 q 210 -315 250 -297 q 118 -333 169 -333 q 88 -333 101 -333 q 64 -331 75 -333 q 37 -324 49 -328 q 1 -314 25 -321 l 0 -153 q 51 -186 25 -175 q 110 -197 78 -197 q 181 -164 151 -197 q 229 -74 210 -131 q 245 -17 239 -46 q 256 39 251 11 q 264 91 261 67 q 269 133 267 115 l 339 631 l 249 631 l 269 761 l 360 761 q 366 802 363 781 q 374 847 369 824 q 386 903 379 875 q 404 957 393 931 q 478 1048 426 1010 q 597 1086 529 1086 q 690 1074 656 1086 q 749 1042 725 1061 l 719 890 z "},"ˆ":{"ha":528,"x_min":53,"x_max":493,"o":"m 196 1056 l 354 1056 l 493 861 l 388 861 l 274 969 l 158 861 l 53 861 l 196 1056 z "},"˜":{"ha":747,"x_min":144,"x_max":633,"o":"m 490 856 q 431 867 458 856 q 378 890 403 878 q 354 903 367 897 q 331 913 342 908 q 286 922 310 922 q 222 860 236 922 l 144 860 q 155 925 146 892 q 181 985 164 958 q 223 1028 197 1011 q 282 1044 249 1044 q 343 1033 314 1044 q 397 1010 372 1022 q 423 997 411 1003 q 446 988 435 992 q 485 978 467 978 q 530 992 513 978 q 554 1040 547 1007 l 633 1040 q 623 974 632 1007 q 597 915 614 942 q 553 872 579 889 q 490 856 526 856 z "},"–":{"ha":763,"x_min":35,"x_max":721,"o":"m 721 525 l 601 368 l 147 368 q 35 358 82 368 l 150 518 l 633 518 q 677 519 656 518 q 721 525 699 519 z "},"—":{"ha":1149,"x_min":35,"x_max":1107,"o":"m 1107 525 l 988 368 l 147 368 q 35 358 82 368 l 150 518 l 1019 518 q 1063 519 1042 518 q 1107 525 1085 519 z "},"‘":{"ha":282,"x_min":42,"x_max":240,"o":"m 42 821 q 45 868 42 849 q 60 914 49 888 q 95 985 71 946 q 151 1056 119 1025 l 194 1054 q 155 998 174 1031 q 121 917 136 965 q 140 918 128 918 q 210 888 181 918 q 240 815 240 857 q 210 742 240 772 q 140 713 181 713 q 103 721 121 713 q 71 744 85 729 q 49 778 57 758 q 42 821 42 799 z "},"’":{"ha":310,"x_min":56,"x_max":254,"o":"m 254 947 q 250 900 254 919 q 236 854 246 881 q 201 783 225 822 q 144 713 176 743 l 101 714 q 140 770 121 738 q 175 851 160 803 q 154 850 168 850 q 85 881 114 850 q 56 953 56 911 q 85 1026 56 996 q 154 1056 114 1056 q 224 1024 194 1056 q 254 947 254 992 z "},"‚":{"ha":310,"x_min":56,"x_max":254,"o":"m 254 90 q 250 43 254 63 q 236 -3 246 24 q 201 -74 225 -35 q 144 -144 176 -114 l 101 -143 q 140 -87 121 -119 q 175 -6 160 -54 q 154 -7 168 -7 q 85 24 114 -7 q 56 96 56 54 q 85 169 56 139 q 154 199 114 199 q 224 167 194 199 q 254 90 254 135 z "},"“":{"ha":553,"x_min":42,"x_max":497,"o":"m 299 821 q 302 868 299 849 q 317 914 306 888 q 352 985 328 946 q 408 1056 376 1025 l 451 1054 q 412 998 431 1031 q 378 917 393 965 q 397 918 385 918 q 467 888 438 918 q 497 815 497 857 q 467 742 497 772 q 397 713 438 713 q 360 721 378 713 q 328 744 342 729 q 306 778 314 758 q 299 821 299 799 m 42 821 q 45 868 42 849 q 60 914 49 888 q 95 985 71 946 q 151 1056 119 1025 l 194 1054 q 155 998 174 1031 q 121 917 136 965 q 140 918 128 918 q 210 888 181 918 q 240 815 240 857 q 210 742 240 772 q 140 713 181 713 q 103 721 121 713 q 71 744 85 729 q 49 778 57 758 q 42 821 42 799 z "},"”":{"ha":553,"x_min":56,"x_max":511,"o":"m 254 947 q 250 900 254 919 q 236 854 246 881 q 201 783 225 822 q 144 713 176 743 l 101 714 q 140 770 121 738 q 175 851 160 803 q 154 850 168 850 q 85 881 114 850 q 56 953 56 911 q 85 1026 56 996 q 154 1056 114 1056 q 224 1024 194 1056 q 254 947 254 992 m 511 947 q 507 900 511 919 q 493 854 503 881 q 458 783 482 822 q 401 713 433 743 l 358 714 q 397 770 378 738 q 432 851 417 803 q 411 850 425 850 q 342 881 371 850 q 313 953 313 911 q 342 1026 313 996 q 411 1056 371 1056 q 481 1024 451 1056 q 511 947 511 992 z "},"„":{"ha":567,"x_min":56,"x_max":511,"o":"m 254 89 q 250 42 254 61 q 236 -4 246 22 q 201 -76 225 -36 q 144 -146 176 -115 l 101 -144 q 140 -88 121 -121 q 175 -7 160 -56 q 154 -8 168 -8 q 85 22 114 -8 q 56 94 56 53 q 85 167 56 138 q 154 197 114 197 q 224 165 194 197 q 254 89 254 133 m 511 89 q 507 42 511 61 q 493 -4 503 22 q 458 -76 482 -36 q 401 -146 433 -115 l 358 -144 q 397 -88 378 -121 q 432 -7 417 -56 q 411 -8 425 -8 q 342 22 371 -8 q 313 94 313 53 q 342 167 313 138 q 411 197 371 197 q 481 165 451 197 q 511 89 511 133 z "},"†":{"ha":682,"x_min":83,"x_max":599,"o":"m 422 635 l 401 -97 q 387 -195 400 -146 q 343 -294 374 -244 q 295 -196 308 -244 q 281 -97 282 -147 l 260 635 l 83 635 l 83 785 l 260 785 l 258 828 q 254 910 257 879 q 242 965 251 942 q 217 1008 233 988 q 171 1056 200 1028 l 514 1056 q 467 1008 485 1028 q 440 966 450 989 q 428 911 431 943 q 424 828 425 879 l 422 785 l 599 785 l 599 635 l 422 635 z "},"‡":{"ha":682,"x_min":83,"x_max":599,"o":"m 599 6 l 424 6 l 424 -51 q 425 -123 424 -92 q 435 -181 426 -154 q 461 -230 443 -207 q 514 -278 479 -253 l 171 -278 q 220 -231 203 -256 q 246 -179 238 -207 q 256 -119 254 -151 q 258 -51 258 -87 l 260 6 l 83 6 l 83 167 l 261 167 q 265 277 263 222 q 267 389 267 332 q 265 498 267 443 q 261 607 263 553 l 83 607 l 83 771 l 260 771 l 258 828 q 256 897 258 865 q 246 956 254 928 q 220 1008 238 983 q 171 1056 203 1032 l 514 1056 q 461 1007 479 1031 q 435 957 443 983 q 425 899 426 931 q 424 828 424 868 l 424 771 l 599 771 l 599 607 l 421 607 q 417 498 419 553 q 415 389 415 443 q 417 277 415 332 q 421 167 419 222 l 599 167 l 599 6 z "},"•":{"ha":444,"x_min":0,"x_max":361,"o":"m 361 554 q 347 483 361 517 q 308 426 333 450 q 251 387 283 401 q 181 372 218 372 q 110 387 143 372 q 53 426 78 401 q 14 483 28 450 q 0 554 0 517 q 14 624 0 592 q 53 681 28 657 q 110 720 78 706 q 181 735 143 735 q 251 720 218 735 q 308 681 283 706 q 347 624 333 657 q 361 554 361 592 z "},"…":{"ha":921,"x_min":56,"x_max":865,"o":"m 56 88 q 85 160 56 131 q 154 190 114 190 q 224 160 194 190 q 254 88 254 131 q 224 15 254 46 q 154 -15 194 -15 q 85 15 114 -15 q 56 88 56 46 m 361 88 q 390 160 361 131 q 460 190 419 190 q 530 160 500 190 q 560 88 560 131 q 530 15 560 46 q 460 -15 500 -15 q 390 15 419 -15 q 361 88 361 46 m 667 88 q 696 160 667 131 q 765 190 725 190 q 835 160 806 190 q 865 88 865 131 q 835 15 865 46 q 765 -15 806 -15 q 696 15 725 -15 q 667 88 667 46 z "},"‰":{"ha":1931,"x_min":69,"x_max":1861,"o":"m 1000 -14 q 891 11 940 -14 q 806 80 842 36 q 751 182 771 124 q 732 308 732 240 q 751 438 732 376 q 806 545 771 499 q 891 619 842 592 q 1000 647 940 647 q 1109 619 1060 647 q 1194 545 1158 592 q 1249 438 1229 499 q 1268 308 1268 376 q 1249 182 1268 240 q 1194 80 1229 124 q 1109 11 1158 36 q 1000 -14 1060 -14 m 503 0 l 389 0 l 836 1054 l 947 1054 l 503 0 m 338 411 q 230 436 279 411 q 145 505 181 461 q 90 607 110 549 q 69 733 69 665 q 89 863 69 801 q 144 970 108 924 q 228 1044 179 1017 q 338 1072 278 1072 q 447 1044 397 1072 q 531 970 496 1017 q 586 863 567 924 q 606 733 606 801 q 586 607 606 665 q 531 505 567 549 q 447 436 496 461 q 338 411 397 411 m 1000 574 q 944 553 969 574 q 900 496 918 532 q 872 411 882 460 q 861 307 861 363 q 899 127 861 196 q 1000 58 938 58 q 1056 76 1031 58 q 1099 127 1081 94 q 1128 206 1118 160 q 1139 307 1139 251 q 1128 411 1139 363 q 1099 496 1118 460 q 1056 553 1081 532 q 1000 574 1031 574 m 338 999 q 281 978 307 999 q 238 922 256 957 q 210 837 219 886 q 200 732 200 788 q 238 553 200 621 q 338 485 275 485 q 438 553 400 485 q 476 732 476 621 q 466 836 476 788 q 437 921 456 885 q 393 978 418 957 q 338 999 368 999 m 1593 -14 q 1484 11 1533 -14 q 1399 80 1435 36 q 1344 182 1364 124 q 1325 308 1325 240 q 1344 438 1325 376 q 1399 545 1364 499 q 1484 619 1435 592 q 1593 647 1533 647 q 1702 619 1653 647 q 1787 545 1751 592 q 1842 438 1822 499 q 1861 308 1861 376 q 1842 182 1861 240 q 1787 80 1822 124 q 1702 11 1751 36 q 1593 -14 1653 -14 m 1593 574 q 1537 553 1563 574 q 1493 496 1511 532 q 1465 411 1475 460 q 1454 307 1454 363 q 1492 127 1454 196 q 1593 58 1531 58 q 1649 76 1624 58 q 1692 127 1674 94 q 1722 206 1711 160 q 1732 307 1732 251 q 1722 411 1732 363 q 1692 496 1711 460 q 1649 553 1674 532 q 1593 574 1624 574 z "},"‹":{"ha":342,"x_min":56,"x_max":286,"o":"m 286 99 l 186 99 l 56 318 l 186 542 l 286 542 l 204 318 l 286 99 z "},"›":{"ha":342,"x_min":56,"x_max":286,"o":"m 138 318 l 56 542 l 156 542 l 286 318 l 156 99 l 56 99 l 138 318 z "},"€":{"ha":1061,"x_min":28,"x_max":992,"o":"m 713 465 l 642 322 l 374 322 q 498 169 418 224 q 671 115 578 115 q 856 155 782 115 q 990 275 931 194 l 992 81 q 855 10 933 35 q 683 -15 776 -15 q 525 6 604 -15 q 376 69 446 26 q 251 174 307 111 q 163 322 194 238 l 140 322 q 84 319 117 322 q 28 313 51 315 l 103 458 l 131 458 q 126 529 126 492 q 126 548 126 539 q 128 567 126 557 q 77 563 104 565 q 29 557 50 560 l 103 703 l 156 703 q 239 855 185 786 q 363 972 293 924 q 515 1046 433 1019 q 681 1072 596 1072 q 772 1068 731 1072 q 849 1056 814 1064 q 916 1034 885 1047 q 978 1003 947 1021 l 901 850 q 803 924 854 903 q 674 944 751 944 q 585 928 631 944 q 496 882 539 913 q 417 806 453 851 q 360 703 382 761 l 746 703 q 790 703 768 703 q 833 710 811 704 l 763 567 l 332 567 q 331 550 331 558 q 331 533 331 542 q 336 458 331 490 l 625 458 q 669 459 647 458 q 713 465 690 460 z "},"™":{"ha":1014,"x_min":56,"x_max":958,"o":"m 358 988 l 292 988 l 292 604 q 294 563 292 578 q 304 528 296 547 l 188 528 q 198 564 196 547 q 200 604 200 581 l 200 988 l 126 988 q 86 984 101 988 q 56 971 71 981 l 56 1063 q 83 1057 71 1058 q 110 1056 94 1056 l 379 1056 q 408 1057 399 1056 q 432 1063 417 1058 l 432 971 q 398 983 414 979 q 358 988 382 988 m 713 736 l 715 736 q 723 758 718 747 q 735 783 728 768 l 838 1011 q 846 1031 842 1021 q 854 1056 850 1042 l 947 1056 q 925 1026 931 1040 q 921 986 919 1011 l 938 585 q 958 528 939 549 l 840 528 q 851 553 849 539 q 853 586 853 567 l 843 863 l 840 863 q 829 833 835 847 q 813 794 824 818 l 700 543 l 594 781 q 579 819 586 800 q 565 854 572 838 l 564 854 l 549 583 q 549 551 547 563 q 561 528 551 540 l 465 528 q 476 551 474 540 q 479 581 478 561 l 503 994 q 481 1056 504 1029 l 575 1056 q 583 1031 581 1039 q 592 1011 586 1022 l 694 782 q 713 736 707 756 z "}}}
